<svg width="24" height="12" viewBox="0 0 24 12" fill="none" xmlns="http://www.w3.org/2000/svg">
<g clip-path="url(#clip0_2019_13979)">
<path d="M23.5337 0.123047H0.938965V11.2923H23.5337V0.123047Z" fill="white"/>
<path d="M23.5337 7.62305H0.938965V11.2916H23.5337V7.62305Z" fill="#DA0000"/>
<path d="M6.47178 7.7793H5.23438V7.85295H6.47178V7.7793Z" fill="white"/>
<path d="M5.50359 8.14844H5.41895V8.21997H5.50359V8.14844Z" fill="white"/>
<path d="M6.47607 8.21819V8.14453H6.22804V8.21819H6.47607Z" fill="white"/>
<path d="M6.69353 7.7793H6.60889V8.2191H6.69353V7.7793Z" fill="white"/>
<path d="M7.10059 8.21819V8.14453H6.63194V8.21819H7.10059Z" fill="white"/>
<path d="M6.31268 7.97266H6.22803V8.2185H6.31268V7.97266Z" fill="white"/>
<path d="M7.1159 7.7793H7.03125V8.2191H7.1159V7.7793Z" fill="white"/>
<path d="M6.9035 7.7793H6.81885V8.2191H6.9035V7.7793Z" fill="white"/>
<path d="M5.68848 8.02873V7.95508H5.23684V8.02873H5.68848Z" fill="white"/>
<path d="M6.68018 8.02873V7.95508H6.22854V8.02873H6.68018Z" fill="white"/>
<path d="M6.31268 7.97266H6.22803V8.2185H6.31268V7.97266Z" fill="white"/>
<path d="M6.31268 7.97266H6.22803V8.2185H6.31268V7.97266Z" fill="white"/>
<path d="M6.31268 7.97266H6.22803V8.2185H6.31268V7.97266Z" fill="white"/>
<path d="M5.32098 7.97266H5.23633V8.2185H5.32098V7.97266Z" fill="white"/>
<path d="M6.04705 7.97266H5.9624V8.2185H6.04705V7.97266Z" fill="white"/>
<path d="M5.68816 7.97266H5.60352V8.2185H5.68816V7.97266Z" fill="white"/>
<path d="M6.02393 8.21819V8.14453H5.64215V8.21819H6.02393Z" fill="white"/>
<path d="M6.04736 8.02873V7.95508H5.80459V8.02873H6.04736Z" fill="white"/>
<path d="M4.44151 7.7793H3.2041V7.85295H4.44151V7.7793Z" fill="white"/>
<path d="M3.47332 8.14844H3.38867V8.21997H3.47332V8.14844Z" fill="white"/>
<path d="M4.4458 8.21819V8.14453H4.19777V8.21819H4.4458Z" fill="white"/>
<path d="M4.66326 7.7793H4.57861V8.2191H4.66326V7.7793Z" fill="white"/>
<path d="M5.07031 8.21819V8.14453H4.60166V8.21819H5.07031Z" fill="white"/>
<path d="M4.2824 7.97266H4.19775V8.2185H4.2824V7.97266Z" fill="white"/>
<path d="M5.08562 7.7793H5.00098V8.2191H5.08562V7.7793Z" fill="white"/>
<path d="M4.87322 7.7793H4.78857V8.2191H4.87322V7.7793Z" fill="white"/>
<path d="M3.6582 8.02873V7.95508H3.20657V8.02873H3.6582Z" fill="white"/>
<path d="M4.6499 8.02873V7.95508H4.19827V8.02873H4.6499Z" fill="white"/>
<path d="M4.2824 7.97266H4.19775V8.2185H4.2824V7.97266Z" fill="white"/>
<path d="M4.2824 7.97266H4.19775V8.2185H4.2824V7.97266Z" fill="white"/>
<path d="M4.2824 7.97266H4.19775V8.2185H4.2824V7.97266Z" fill="white"/>
<path d="M3.2907 7.97266H3.20605V8.2185H3.2907V7.97266Z" fill="white"/>
<path d="M4.01678 7.97266H3.93213V8.2185H4.01678V7.97266Z" fill="white"/>
<path d="M3.6574 7.97266H3.57275V8.2185H3.6574V7.97266Z" fill="white"/>
<path d="M3.99316 8.21819V8.14453H3.61139V8.21819H3.99316Z" fill="white"/>
<path d="M4.01709 8.02873V7.95508H3.77432V8.02873H4.01709Z" fill="white"/>
<path d="M8.4879 7.7793H7.25049V7.85295H8.4879V7.7793Z" fill="white"/>
<path d="M7.51971 8.14844H7.43506V8.21997H7.51971V8.14844Z" fill="white"/>
<path d="M8.49219 8.21819V8.14453H8.24415V8.21819H8.49219Z" fill="white"/>
<path d="M8.70965 7.7793H8.625V8.2191H8.70965V7.7793Z" fill="white"/>
<path d="M9.1167 8.21819V8.14453H8.64805V8.21819H9.1167Z" fill="white"/>
<path d="M8.32879 7.97266H8.24414V8.2185H8.32879V7.97266Z" fill="white"/>
<path d="M9.13201 7.7793H9.04736V8.2191H9.13201V7.7793Z" fill="white"/>
<path d="M8.91961 7.7793H8.83496V8.2191H8.91961V7.7793Z" fill="white"/>
<path d="M7.70459 8.02873V7.95508H7.25295V8.02873H7.70459Z" fill="white"/>
<path d="M8.69629 8.02873V7.95508H8.24465V8.02873H8.69629Z" fill="white"/>
<path d="M8.32879 7.97266H8.24414V8.2185H8.32879V7.97266Z" fill="white"/>
<path d="M8.32879 7.97266H8.24414V8.2185H8.32879V7.97266Z" fill="white"/>
<path d="M8.32879 7.97266H8.24414V8.2185H8.32879V7.97266Z" fill="white"/>
<path d="M7.33709 7.97266H7.25244V8.2185H7.33709V7.97266Z" fill="white"/>
<path d="M8.06316 7.97266H7.97852V8.2185H8.06316V7.97266Z" fill="white"/>
<path d="M7.70379 7.97266H7.61914V8.2185H7.70379V7.97266Z" fill="white"/>
<path d="M8.03955 8.21819V8.14453H7.65777V8.21819H8.03955Z" fill="white"/>
<path d="M8.06348 8.02873V7.95508H7.8207V8.02873H8.06348Z" fill="white"/>
<path d="M22.7198 7.7793H21.4824V7.85295H22.7198V7.7793Z" fill="white"/>
<path d="M21.7516 8.14844H21.667V8.21997H21.7516V8.14844Z" fill="white"/>
<path d="M22.7241 8.21819V8.14453H22.4761V8.21819H22.7241Z" fill="white"/>
<path d="M22.9416 7.7793H22.8569V8.2191H22.9416V7.7793Z" fill="white"/>
<path d="M23.3486 8.21819V8.14453H22.88V8.21819H23.3486Z" fill="white"/>
<path d="M22.5607 7.97266H22.4761V8.2185H22.5607V7.97266Z" fill="white"/>
<path d="M23.3639 7.7793H23.2793V8.2191H23.3639V7.7793Z" fill="white"/>
<path d="M23.1515 7.7793H23.0669V8.2191H23.1515V7.7793Z" fill="white"/>
<path d="M21.9365 8.02873V7.95508H21.4849V8.02873H21.9365Z" fill="white"/>
<path d="M22.9282 8.02873V7.95508H22.4766V8.02873H22.9282Z" fill="white"/>
<path d="M22.5607 7.97266H22.4761V8.2185H22.5607V7.97266Z" fill="white"/>
<path d="M22.5607 7.97266H22.4761V8.2185H22.5607V7.97266Z" fill="white"/>
<path d="M22.5607 7.97266H22.4761V8.2185H22.5607V7.97266Z" fill="white"/>
<path d="M21.569 7.97266H21.4844V8.2185H21.569V7.97266Z" fill="white"/>
<path d="M22.2951 7.97266H22.2104V8.2185H22.2951V7.97266Z" fill="white"/>
<path d="M21.9362 7.97266H21.8516V8.2185H21.9362V7.97266Z" fill="white"/>
<path d="M22.272 8.21819V8.14453H21.8902V8.21819H22.272Z" fill="white"/>
<path d="M22.2954 8.02873V7.95508H22.0526V8.02873H22.2954Z" fill="white"/>
<path d="M10.5182 7.7793H9.28076V7.85295H10.5182V7.7793Z" fill="white"/>
<path d="M9.54998 8.14844H9.46533V8.21997H9.54998V8.14844Z" fill="white"/>
<path d="M10.5225 8.21819V8.14453H10.2744V8.21819H10.5225Z" fill="white"/>
<path d="M10.7399 7.7793H10.6553V8.2191H10.7399V7.7793Z" fill="white"/>
<path d="M11.147 8.21819V8.14453H10.6783V8.21819H11.147Z" fill="white"/>
<path d="M10.3591 7.97266H10.2744V8.2185H10.3591V7.97266Z" fill="white"/>
<path d="M11.1623 7.7793H11.0776V8.2191H11.1623V7.7793Z" fill="white"/>
<path d="M10.9499 7.7793H10.8652V8.2191H10.9499V7.7793Z" fill="white"/>
<path d="M9.73486 8.02873V7.95508H9.28323V8.02873H9.73486Z" fill="white"/>
<path d="M10.7266 8.02873V7.95508H10.2749V8.02873H10.7266Z" fill="white"/>
<path d="M10.3591 7.97266H10.2744V8.2185H10.3591V7.97266Z" fill="white"/>
<path d="M10.3591 7.97266H10.2744V8.2185H10.3591V7.97266Z" fill="white"/>
<path d="M10.3591 7.97266H10.2744V8.2185H10.3591V7.97266Z" fill="white"/>
<path d="M9.36736 7.97266H9.28271V8.2185H9.36736V7.97266Z" fill="white"/>
<path d="M10.0934 7.97266H10.0088V8.2185H10.0934V7.97266Z" fill="white"/>
<path d="M9.73406 7.97266H9.64941V8.2185H9.73406V7.97266Z" fill="white"/>
<path d="M10.0698 8.21819V8.14453H9.68805V8.21819H10.0698Z" fill="white"/>
<path d="M10.0938 8.02873V7.95508H9.85098V8.02873H10.0938Z" fill="white"/>
<path d="M12.5523 7.7793H11.3149V7.85295H12.5523V7.7793Z" fill="white"/>
<path d="M11.5842 8.14844H11.4995V8.21997H11.5842V8.14844Z" fill="white"/>
<path d="M12.5566 8.21819V8.14453H12.3086V8.21819H12.5566Z" fill="white"/>
<path d="M12.7741 7.7793H12.6895V8.2191H12.7741V7.7793Z" fill="white"/>
<path d="M13.1812 8.21819V8.14453H12.7125V8.21819H13.1812Z" fill="white"/>
<path d="M12.3932 7.97266H12.3086V8.2185H12.3932V7.97266Z" fill="white"/>
<path d="M13.1965 7.7793H13.1118V8.2191H13.1965V7.7793Z" fill="white"/>
<path d="M12.9841 7.7793H12.8994V8.2191H12.9841V7.7793Z" fill="white"/>
<path d="M11.769 8.02873V7.95508H11.3174V8.02873H11.769Z" fill="white"/>
<path d="M12.7607 8.02873V7.95508H12.3091V8.02873H12.7607Z" fill="white"/>
<path d="M12.3932 7.97266H12.3086V8.2185H12.3932V7.97266Z" fill="white"/>
<path d="M12.3932 7.97266H12.3086V8.2185H12.3932V7.97266Z" fill="white"/>
<path d="M12.3932 7.97266H12.3086V8.2185H12.3932V7.97266Z" fill="white"/>
<path d="M11.4015 7.97266H11.3169V8.2185H11.4015V7.97266Z" fill="white"/>
<path d="M12.1276 7.97266H12.043V8.2185H12.1276V7.97266Z" fill="white"/>
<path d="M11.7682 7.97266H11.6836V8.2185H11.7682V7.97266Z" fill="white"/>
<path d="M12.104 8.21819V8.14453H11.7222V8.21819H12.104Z" fill="white"/>
<path d="M12.1279 8.02873V7.95508H11.8852V8.02873H12.1279Z" fill="white"/>
<path d="M23.5337 0.123047H0.938965V3.79156H23.5337V0.123047Z" fill="#239F40"/>
<path d="M14.6007 7.7793H13.3633V7.85295H14.6007V7.7793Z" fill="white"/>
<path d="M13.6325 8.14844H13.5479V8.21997H13.6325V8.14844Z" fill="white"/>
<path d="M14.605 8.21819V8.14453H14.3569V8.21819H14.605Z" fill="white"/>
<path d="M14.8224 7.7793H14.7378V8.2191H14.8224V7.7793Z" fill="white"/>
<path d="M15.2295 8.21819V8.14453H14.7608V8.21819H15.2295Z" fill="white"/>
<path d="M14.4416 7.97266H14.3569V8.2185H14.4416V7.97266Z" fill="white"/>
<path d="M15.2448 7.7793H15.1602V8.2191H15.2448V7.7793Z" fill="white"/>
<path d="M15.0324 7.7793H14.9478V8.2191H15.0324V7.7793Z" fill="white"/>
<path d="M13.8174 8.02873V7.95508H13.3657V8.02873H13.8174Z" fill="white"/>
<path d="M14.8091 8.02873V7.95508H14.3574V8.02873H14.8091Z" fill="white"/>
<path d="M14.4416 7.97266H14.3569V8.2185H14.4416V7.97266Z" fill="white"/>
<path d="M14.4416 7.97266H14.3569V8.2185H14.4416V7.97266Z" fill="white"/>
<path d="M14.4416 7.97266H14.3569V8.2185H14.4416V7.97266Z" fill="white"/>
<path d="M13.4499 7.97266H13.3652V8.2185H13.4499V7.97266Z" fill="white"/>
<path d="M14.176 7.97266H14.0913V8.2185H14.176V7.97266Z" fill="white"/>
<path d="M13.8171 7.97266H13.7324V8.2185H13.8171V7.97266Z" fill="white"/>
<path d="M14.1528 8.21819V8.14453H13.7711V8.21819H14.1528Z" fill="white"/>
<path d="M14.1768 8.02873V7.95508H13.934V8.02873H14.1768Z" fill="white"/>
<path d="M16.6354 7.7793H15.3979V7.85295H16.6354V7.7793Z" fill="white"/>
<path d="M15.6672 8.14844H15.5825V8.21997H15.6672V8.14844Z" fill="white"/>
<path d="M16.6396 8.21819V8.14453H16.3916V8.21819H16.6396Z" fill="white"/>
<path d="M16.8571 7.7793H16.7725V8.2191H16.8571V7.7793Z" fill="white"/>
<path d="M17.2642 8.21819V8.14453H16.7955V8.21819H17.2642Z" fill="white"/>
<path d="M16.4762 7.97266H16.3916V8.2185H16.4762V7.97266Z" fill="white"/>
<path d="M17.2795 7.7793H17.1948V8.2191H17.2795V7.7793Z" fill="white"/>
<path d="M17.0671 7.7793H16.9824V8.2191H17.0671V7.7793Z" fill="white"/>
<path d="M15.8521 8.02873V7.95508H15.4004V8.02873H15.8521Z" fill="white"/>
<path d="M16.8438 8.02873V7.95508H16.3921V8.02873H16.8438Z" fill="white"/>
<path d="M16.4762 7.97266H16.3916V8.2185H16.4762V7.97266Z" fill="white"/>
<path d="M16.4762 7.97266H16.3916V8.2185H16.4762V7.97266Z" fill="white"/>
<path d="M16.4762 7.97266H16.3916V8.2185H16.4762V7.97266Z" fill="white"/>
<path d="M15.4846 7.97266H15.3999V8.2185H15.4846V7.97266Z" fill="white"/>
<path d="M16.2106 7.97266H16.126V8.2185H16.2106V7.97266Z" fill="white"/>
<path d="M15.8512 7.97266H15.7666V8.2185H15.8512V7.97266Z" fill="white"/>
<path d="M16.187 8.21819V8.14453H15.8052V8.21819H16.187Z" fill="white"/>
<path d="M16.2109 8.02873V7.95508H15.9682V8.02873H16.2109Z" fill="white"/>
<path d="M18.6715 7.7793H17.4341V7.85295H18.6715V7.7793Z" fill="white"/>
<path d="M17.7033 8.14844H17.6187V8.21997H17.7033V8.14844Z" fill="white"/>
<path d="M18.6758 8.21819V8.14453H18.4277V8.21819H18.6758Z" fill="white"/>
<path d="M18.8932 7.7793H18.8086V8.2191H18.8932V7.7793Z" fill="white"/>
<path d="M19.3003 8.21819V8.14453H18.8316V8.21819H19.3003Z" fill="white"/>
<path d="M18.5124 7.97266H18.4277V8.2185H18.5124V7.97266Z" fill="white"/>
<path d="M19.3156 7.7793H19.231V8.2191H19.3156V7.7793Z" fill="white"/>
<path d="M19.1032 7.7793H19.0186V8.2191H19.1032V7.7793Z" fill="white"/>
<path d="M17.8882 8.02873V7.95508H17.4365V8.02873H17.8882Z" fill="white"/>
<path d="M18.8799 8.02873V7.95508H18.4282V8.02873H18.8799Z" fill="white"/>
<path d="M18.5124 7.97266H18.4277V8.2185H18.5124V7.97266Z" fill="white"/>
<path d="M18.5124 7.97266H18.4277V8.2185H18.5124V7.97266Z" fill="white"/>
<path d="M18.5124 7.97266H18.4277V8.2185H18.5124V7.97266Z" fill="white"/>
<path d="M17.5207 7.97266H17.436V8.2185H17.5207V7.97266Z" fill="white"/>
<path d="M18.2468 7.97266H18.1621V8.2185H18.2468V7.97266Z" fill="white"/>
<path d="M17.8874 7.97266H17.8027V8.2185H17.8874V7.97266Z" fill="white"/>
<path d="M18.2231 8.21819V8.14453H17.8414V8.21819H18.2231Z" fill="white"/>
<path d="M18.2471 8.02873V7.95508H18.0043V8.02873H18.2471Z" fill="white"/>
<path d="M20.7198 7.7793H19.4824V7.85295H20.7198V7.7793Z" fill="white"/>
<path d="M19.7516 8.14844H19.667V8.21997H19.7516V8.14844Z" fill="white"/>
<path d="M20.7241 8.21819V8.14453H20.4761V8.21819H20.7241Z" fill="white"/>
<path d="M20.9416 7.7793H20.8569V8.2191H20.9416V7.7793Z" fill="white"/>
<path d="M21.3486 8.21819V8.14453H20.88V8.21819H21.3486Z" fill="white"/>
<path d="M20.5607 7.97266H20.4761V8.2185H20.5607V7.97266Z" fill="white"/>
<path d="M21.3639 7.7793H21.2793V8.2191H21.3639V7.7793Z" fill="white"/>
<path d="M21.1515 7.7793H21.0669V8.2191H21.1515V7.7793Z" fill="white"/>
<path d="M19.9365 8.02873V7.95508H19.4849V8.02873H19.9365Z" fill="white"/>
<path d="M20.9282 8.02873V7.95508H20.4766V8.02873H20.9282Z" fill="white"/>
<path d="M20.5607 7.97266H20.4761V8.2185H20.5607V7.97266Z" fill="white"/>
<path d="M20.5607 7.97266H20.4761V8.2185H20.5607V7.97266Z" fill="white"/>
<path d="M20.5607 7.97266H20.4761V8.2185H20.5607V7.97266Z" fill="white"/>
<path d="M19.569 7.97266H19.4844V8.2185H19.569V7.97266Z" fill="white"/>
<path d="M20.2951 7.97266H20.2104V8.2185H20.2951V7.97266Z" fill="white"/>
<path d="M19.9357 7.97266H19.8511V8.2185H19.9357V7.97266Z" fill="white"/>
<path d="M20.2715 8.21819V8.14453H19.8897V8.21819H20.2715Z" fill="white"/>
<path d="M20.2954 8.02873V7.95508H20.0526V8.02873H20.2954Z" fill="white"/>
<path d="M2.38292 7.7793H1.14551V7.85295H2.38292V7.7793Z" fill="white"/>
<path d="M1.41473 8.14844H1.33008V8.21997H1.41473V8.14844Z" fill="white"/>
<path d="M2.38721 8.21819V8.14453H2.13917V8.21819H2.38721Z" fill="white"/>
<path d="M2.60467 7.7793H2.52002V8.2191H2.60467V7.7793Z" fill="white"/>
<path d="M3.01172 8.21819V8.14453H2.54307V8.21819H3.01172Z" fill="white"/>
<path d="M2.22381 7.97266H2.13916V8.2185H2.22381V7.97266Z" fill="white"/>
<path d="M3.02703 7.7793H2.94238V8.2191H3.02703V7.7793Z" fill="white"/>
<path d="M2.81463 7.7793H2.72998V8.2191H2.81463V7.7793Z" fill="white"/>
<path d="M1.59961 8.02873V7.95508H1.14797V8.02873H1.59961Z" fill="white"/>
<path d="M2.59131 8.02873V7.95508H2.13967V8.02873H2.59131Z" fill="white"/>
<path d="M2.22381 7.97266H2.13916V8.2185H2.22381V7.97266Z" fill="white"/>
<path d="M2.22381 7.97266H2.13916V8.2185H2.22381V7.97266Z" fill="white"/>
<path d="M2.22381 7.97266H2.13916V8.2185H2.22381V7.97266Z" fill="white"/>
<path d="M1.23211 7.97266H1.14746V8.2185H1.23211V7.97266Z" fill="white"/>
<path d="M1.95818 7.97266H1.87354V8.2185H1.95818V7.97266Z" fill="white"/>
<path d="M1.59881 7.97266H1.51416V8.2185H1.59881V7.97266Z" fill="white"/>
<path d="M1.93457 8.21819V8.14453H1.55279V8.21819H1.93457Z" fill="white"/>
<path d="M1.9585 8.02873V7.95508H1.71572V8.02873H1.9585Z" fill="white"/>
<path d="M6.47178 3.25195H5.23438V3.32561H6.47178V3.25195Z" fill="white"/>
<path d="M5.50359 3.62109H5.41895V3.69262H5.50359V3.62109Z" fill="white"/>
<path d="M6.47607 3.69084V3.61719H6.22804V3.69084H6.47607Z" fill="white"/>
<path d="M6.69353 3.25195H6.60889V3.69175H6.69353V3.25195Z" fill="white"/>
<path d="M7.10059 3.69084V3.61719H6.63194V3.69084H7.10059Z" fill="white"/>
<path d="M6.31268 3.44531H6.22803V3.69116H6.31268V3.44531Z" fill="white"/>
<path d="M7.1159 3.25195H7.03125V3.69175H7.1159V3.25195Z" fill="white"/>
<path d="M6.9035 3.25195H6.81885V3.69175H6.9035V3.25195Z" fill="white"/>
<path d="M5.68848 3.50139V3.42773H5.23684V3.50139H5.68848Z" fill="white"/>
<path d="M6.68018 3.50139V3.42773H6.22854V3.50139H6.68018Z" fill="white"/>
<path d="M6.31268 3.44531H6.22803V3.69116H6.31268V3.44531Z" fill="white"/>
<path d="M6.31268 3.44531H6.22803V3.69116H6.31268V3.44531Z" fill="white"/>
<path d="M6.31268 3.44531H6.22803V3.69116H6.31268V3.44531Z" fill="white"/>
<path d="M5.32098 3.44531H5.23633V3.69116H5.32098V3.44531Z" fill="white"/>
<path d="M6.04705 3.44531H5.9624V3.69116H6.04705V3.44531Z" fill="white"/>
<path d="M5.68816 3.44531H5.60352V3.69116H5.68816V3.44531Z" fill="white"/>
<path d="M6.02393 3.69084V3.61719H5.64215V3.69084H6.02393Z" fill="white"/>
<path d="M6.04736 3.50139V3.42773H5.80459V3.50139H6.04736Z" fill="white"/>
<path d="M4.44151 3.25195H3.2041V3.32561H4.44151V3.25195Z" fill="white"/>
<path d="M3.47332 3.62109H3.38867V3.69262H3.47332V3.62109Z" fill="white"/>
<path d="M4.4458 3.69084V3.61719H4.19777V3.69084H4.4458Z" fill="white"/>
<path d="M4.66326 3.25195H4.57861V3.69175H4.66326V3.25195Z" fill="white"/>
<path d="M5.07031 3.69084V3.61719H4.60166V3.69084H5.07031Z" fill="white"/>
<path d="M4.2824 3.44531H4.19775V3.69116H4.2824V3.44531Z" fill="white"/>
<path d="M5.08562 3.25195H5.00098V3.69175H5.08562V3.25195Z" fill="white"/>
<path d="M4.87322 3.25195H4.78857V3.69175H4.87322V3.25195Z" fill="white"/>
<path d="M3.6582 3.50139V3.42773H3.20657V3.50139H3.6582Z" fill="white"/>
<path d="M4.6499 3.50139V3.42773H4.19827V3.50139H4.6499Z" fill="white"/>
<path d="M4.2824 3.44531H4.19775V3.69116H4.2824V3.44531Z" fill="white"/>
<path d="M4.2824 3.44531H4.19775V3.69116H4.2824V3.44531Z" fill="white"/>
<path d="M4.2824 3.44531H4.19775V3.69116H4.2824V3.44531Z" fill="white"/>
<path d="M3.2907 3.44531H3.20605V3.69116H3.2907V3.44531Z" fill="white"/>
<path d="M4.01678 3.44531H3.93213V3.69116H4.01678V3.44531Z" fill="white"/>
<path d="M3.6574 3.44531H3.57275V3.69116H3.6574V3.44531Z" fill="white"/>
<path d="M3.99316 3.69084V3.61719H3.61139V3.69084H3.99316Z" fill="white"/>
<path d="M4.01709 3.50139V3.42773H3.77432V3.50139H4.01709Z" fill="white"/>
<path d="M8.4879 3.25195H7.25049V3.32561H8.4879V3.25195Z" fill="white"/>
<path d="M7.51971 3.62109H7.43506V3.69262H7.51971V3.62109Z" fill="white"/>
<path d="M8.49219 3.69084V3.61719H8.24415V3.69084H8.49219Z" fill="white"/>
<path d="M8.70965 3.25195H8.625V3.69175H8.70965V3.25195Z" fill="white"/>
<path d="M9.1167 3.69084V3.61719H8.64805V3.69084H9.1167Z" fill="white"/>
<path d="M8.32879 3.44531H8.24414V3.69116H8.32879V3.44531Z" fill="white"/>
<path d="M9.13201 3.25195H9.04736V3.69175H9.13201V3.25195Z" fill="white"/>
<path d="M8.91961 3.25195H8.83496V3.69175H8.91961V3.25195Z" fill="white"/>
<path d="M7.70459 3.50139V3.42773H7.25295V3.50139H7.70459Z" fill="white"/>
<path d="M8.69629 3.50139V3.42773H8.24465V3.50139H8.69629Z" fill="white"/>
<path d="M8.32879 3.44531H8.24414V3.69116H8.32879V3.44531Z" fill="white"/>
<path d="M8.32879 3.44531H8.24414V3.69116H8.32879V3.44531Z" fill="white"/>
<path d="M8.32879 3.44531H8.24414V3.69116H8.32879V3.44531Z" fill="white"/>
<path d="M7.33709 3.44531H7.25244V3.69116H7.33709V3.44531Z" fill="white"/>
<path d="M8.06316 3.44531H7.97852V3.69116H8.06316V3.44531Z" fill="white"/>
<path d="M7.70379 3.44531H7.61914V3.69116H7.70379V3.44531Z" fill="white"/>
<path d="M8.03955 3.69084V3.61719H7.65777V3.69084H8.03955Z" fill="white"/>
<path d="M8.06348 3.50139V3.42773H7.8207V3.50139H8.06348Z" fill="white"/>
<path d="M22.7198 3.25195H21.4824V3.32561H22.7198V3.25195Z" fill="white"/>
<path d="M21.7516 3.62109H21.667V3.69262H21.7516V3.62109Z" fill="white"/>
<path d="M22.7241 3.69084V3.61719H22.4761V3.69084H22.7241Z" fill="white"/>
<path d="M22.9416 3.25195H22.8569V3.69175H22.9416V3.25195Z" fill="white"/>
<path d="M23.3486 3.69084V3.61719H22.88V3.69084H23.3486Z" fill="white"/>
<path d="M22.5607 3.44531H22.4761V3.69116H22.5607V3.44531Z" fill="white"/>
<path d="M23.3639 3.25195H23.2793V3.69175H23.3639V3.25195Z" fill="white"/>
<path d="M23.1515 3.25195H23.0669V3.69175H23.1515V3.25195Z" fill="white"/>
<path d="M21.9365 3.50139V3.42773H21.4849V3.50139H21.9365Z" fill="white"/>
<path d="M22.9282 3.50139V3.42773H22.4766V3.50139H22.9282Z" fill="white"/>
<path d="M22.5607 3.44531H22.4761V3.69116H22.5607V3.44531Z" fill="white"/>
<path d="M22.5607 3.44531H22.4761V3.69116H22.5607V3.44531Z" fill="white"/>
<path d="M22.5607 3.44531H22.4761V3.69116H22.5607V3.44531Z" fill="white"/>
<path d="M21.569 3.44531H21.4844V3.69116H21.569V3.44531Z" fill="white"/>
<path d="M22.2951 3.44531H22.2104V3.69116H22.2951V3.44531Z" fill="white"/>
<path d="M21.9362 3.44531H21.8516V3.69116H21.9362V3.44531Z" fill="white"/>
<path d="M22.272 3.69084V3.61719H21.8902V3.69084H22.272Z" fill="white"/>
<path d="M22.2954 3.50139V3.42773H22.0526V3.50139H22.2954Z" fill="white"/>
<path d="M10.5182 3.25195H9.28076V3.32561H10.5182V3.25195Z" fill="white"/>
<path d="M9.54998 3.62109H9.46533V3.69262H9.54998V3.62109Z" fill="white"/>
<path d="M10.5225 3.69084V3.61719H10.2744V3.69084H10.5225Z" fill="white"/>
<path d="M10.7399 3.25195H10.6553V3.69175H10.7399V3.25195Z" fill="white"/>
<path d="M11.147 3.69084V3.61719H10.6783V3.69084H11.147Z" fill="white"/>
<path d="M10.3591 3.44531H10.2744V3.69116H10.3591V3.44531Z" fill="white"/>
<path d="M11.1623 3.25195H11.0776V3.69175H11.1623V3.25195Z" fill="white"/>
<path d="M10.9499 3.25195H10.8652V3.69175H10.9499V3.25195Z" fill="white"/>
<path d="M9.73486 3.50139V3.42773H9.28323V3.50139H9.73486Z" fill="white"/>
<path d="M10.7266 3.50139V3.42773H10.2749V3.50139H10.7266Z" fill="white"/>
<path d="M10.3591 3.44531H10.2744V3.69116H10.3591V3.44531Z" fill="white"/>
<path d="M10.3591 3.44531H10.2744V3.69116H10.3591V3.44531Z" fill="white"/>
<path d="M10.3591 3.44531H10.2744V3.69116H10.3591V3.44531Z" fill="white"/>
<path d="M9.36736 3.44531H9.28271V3.69116H9.36736V3.44531Z" fill="white"/>
<path d="M10.0934 3.44531H10.0088V3.69116H10.0934V3.44531Z" fill="white"/>
<path d="M9.73406 3.44531H9.64941V3.69116H9.73406V3.44531Z" fill="white"/>
<path d="M10.0698 3.69084V3.61719H9.68805V3.69084H10.0698Z" fill="white"/>
<path d="M10.0938 3.50139V3.42773H9.85098V3.50139H10.0938Z" fill="white"/>
<path d="M12.5523 3.25195H11.3149V3.32561H12.5523V3.25195Z" fill="white"/>
<path d="M11.5842 3.62109H11.4995V3.69262H11.5842V3.62109Z" fill="white"/>
<path d="M12.5566 3.69084V3.61719H12.3086V3.69084H12.5566Z" fill="white"/>
<path d="M12.7741 3.25195H12.6895V3.69175H12.7741V3.25195Z" fill="white"/>
<path d="M13.1812 3.69084V3.61719H12.7125V3.69084H13.1812Z" fill="white"/>
<path d="M12.3932 3.44531H12.3086V3.69116H12.3932V3.44531Z" fill="white"/>
<path d="M13.1965 3.25195H13.1118V3.69175H13.1965V3.25195Z" fill="white"/>
<path d="M12.9841 3.25195H12.8994V3.69175H12.9841V3.25195Z" fill="white"/>
<path d="M11.769 3.50139V3.42773H11.3174V3.50139H11.769Z" fill="white"/>
<path d="M12.7607 3.50139V3.42773H12.3091V3.50139H12.7607Z" fill="white"/>
<path d="M12.3932 3.44531H12.3086V3.69116H12.3932V3.44531Z" fill="white"/>
<path d="M12.3932 3.44531H12.3086V3.69116H12.3932V3.44531Z" fill="white"/>
<path d="M12.3932 3.44531H12.3086V3.69116H12.3932V3.44531Z" fill="white"/>
<path d="M11.4015 3.44531H11.3169V3.69116H11.4015V3.44531Z" fill="white"/>
<path d="M12.1276 3.44531H12.043V3.69116H12.1276V3.44531Z" fill="white"/>
<path d="M11.7682 3.44531H11.6836V3.69116H11.7682V3.44531Z" fill="white"/>
<path d="M12.104 3.69084V3.61719H11.7222V3.69084H12.104Z" fill="white"/>
<path d="M12.1279 3.50139V3.42773H11.8852V3.50139H12.1279Z" fill="white"/>
<path d="M14.6007 3.25195H13.3633V3.32561H14.6007V3.25195Z" fill="white"/>
<path d="M13.6325 3.62109H13.5479V3.69262H13.6325V3.62109Z" fill="white"/>
<path d="M14.605 3.69084V3.61719H14.3569V3.69084H14.605Z" fill="white"/>
<path d="M14.8224 3.25195H14.7378V3.69175H14.8224V3.25195Z" fill="white"/>
<path d="M15.2295 3.69084V3.61719H14.7608V3.69084H15.2295Z" fill="white"/>
<path d="M14.4416 3.44531H14.3569V3.69116H14.4416V3.44531Z" fill="white"/>
<path d="M15.2448 3.25195H15.1602V3.69175H15.2448V3.25195Z" fill="white"/>
<path d="M15.0324 3.25195H14.9478V3.69175H15.0324V3.25195Z" fill="white"/>
<path d="M13.8174 3.50139V3.42773H13.3657V3.50139H13.8174Z" fill="white"/>
<path d="M14.8091 3.50139V3.42773H14.3574V3.50139H14.8091Z" fill="white"/>
<path d="M14.4416 3.44531H14.3569V3.69116H14.4416V3.44531Z" fill="white"/>
<path d="M14.4416 3.44531H14.3569V3.69116H14.4416V3.44531Z" fill="white"/>
<path d="M14.4416 3.44531H14.3569V3.69116H14.4416V3.44531Z" fill="white"/>
<path d="M13.4499 3.44531H13.3652V3.69116H13.4499V3.44531Z" fill="white"/>
<path d="M14.176 3.44531H14.0913V3.69116H14.176V3.44531Z" fill="white"/>
<path d="M13.8171 3.44531H13.7324V3.69116H13.8171V3.44531Z" fill="white"/>
<path d="M14.1528 3.69084V3.61719H13.7711V3.69084H14.1528Z" fill="white"/>
<path d="M14.1768 3.50139V3.42773H13.934V3.50139H14.1768Z" fill="white"/>
<path d="M16.6354 3.25195H15.3979V3.32561H16.6354V3.25195Z" fill="white"/>
<path d="M15.6672 3.62109H15.5825V3.69262H15.6672V3.62109Z" fill="white"/>
<path d="M16.6396 3.69084V3.61719H16.3916V3.69084H16.6396Z" fill="white"/>
<path d="M16.8571 3.25195H16.7725V3.69175H16.8571V3.25195Z" fill="white"/>
<path d="M17.2642 3.69084V3.61719H16.7955V3.69084H17.2642Z" fill="white"/>
<path d="M16.4762 3.44531H16.3916V3.69116H16.4762V3.44531Z" fill="white"/>
<path d="M17.2795 3.25195H17.1948V3.69175H17.2795V3.25195Z" fill="white"/>
<path d="M17.0671 3.25195H16.9824V3.69175H17.0671V3.25195Z" fill="white"/>
<path d="M15.8521 3.50139V3.42773H15.4004V3.50139H15.8521Z" fill="white"/>
<path d="M16.8438 3.50139V3.42773H16.3921V3.50139H16.8438Z" fill="white"/>
<path d="M16.4762 3.44531H16.3916V3.69116H16.4762V3.44531Z" fill="white"/>
<path d="M16.4762 3.44531H16.3916V3.69116H16.4762V3.44531Z" fill="white"/>
<path d="M16.4762 3.44531H16.3916V3.69116H16.4762V3.44531Z" fill="white"/>
<path d="M15.4846 3.44531H15.3999V3.69116H15.4846V3.44531Z" fill="white"/>
<path d="M16.2106 3.44531H16.126V3.69116H16.2106V3.44531Z" fill="white"/>
<path d="M15.8512 3.44531H15.7666V3.69116H15.8512V3.44531Z" fill="white"/>
<path d="M16.187 3.69084V3.61719H15.8052V3.69084H16.187Z" fill="white"/>
<path d="M16.2109 3.50139V3.42773H15.9682V3.50139H16.2109Z" fill="white"/>
<path d="M18.6715 3.25195H17.4341V3.32561H18.6715V3.25195Z" fill="white"/>
<path d="M17.7033 3.62109H17.6187V3.69262H17.7033V3.62109Z" fill="white"/>
<path d="M18.6758 3.69084V3.61719H18.4277V3.69084H18.6758Z" fill="white"/>
<path d="M18.8932 3.25195H18.8086V3.69175H18.8932V3.25195Z" fill="white"/>
<path d="M19.3003 3.69084V3.61719H18.8316V3.69084H19.3003Z" fill="white"/>
<path d="M18.5124 3.44531H18.4277V3.69116H18.5124V3.44531Z" fill="white"/>
<path d="M19.3156 3.25195H19.231V3.69175H19.3156V3.25195Z" fill="white"/>
<path d="M19.1032 3.25195H19.0186V3.69175H19.1032V3.25195Z" fill="white"/>
<path d="M17.8882 3.50139V3.42773H17.4365V3.50139H17.8882Z" fill="white"/>
<path d="M18.8799 3.50139V3.42773H18.4282V3.50139H18.8799Z" fill="white"/>
<path d="M18.5124 3.44531H18.4277V3.69116H18.5124V3.44531Z" fill="white"/>
<path d="M18.5124 3.44531H18.4277V3.69116H18.5124V3.44531Z" fill="white"/>
<path d="M18.5124 3.44531H18.4277V3.69116H18.5124V3.44531Z" fill="white"/>
<path d="M17.5207 3.44531H17.436V3.69116H17.5207V3.44531Z" fill="white"/>
<path d="M18.2468 3.44531H18.1621V3.69116H18.2468V3.44531Z" fill="white"/>
<path d="M17.8874 3.44531H17.8027V3.69116H17.8874V3.44531Z" fill="white"/>
<path d="M18.2231 3.69084V3.61719H17.8414V3.69084H18.2231Z" fill="white"/>
<path d="M18.2471 3.50139V3.42773H18.0043V3.50139H18.2471Z" fill="white"/>
<path d="M20.7198 3.25195H19.4824V3.32561H20.7198V3.25195Z" fill="white"/>
<path d="M19.7516 3.62109H19.667V3.69262H19.7516V3.62109Z" fill="white"/>
<path d="M20.7241 3.69084V3.61719H20.4761V3.69084H20.7241Z" fill="white"/>
<path d="M20.9416 3.25195H20.8569V3.69175H20.9416V3.25195Z" fill="white"/>
<path d="M21.3486 3.69084V3.61719H20.88V3.69084H21.3486Z" fill="white"/>
<path d="M20.5607 3.44531H20.4761V3.69116H20.5607V3.44531Z" fill="white"/>
<path d="M21.3639 3.25195H21.2793V3.69175H21.3639V3.25195Z" fill="white"/>
<path d="M21.1515 3.25195H21.0669V3.69175H21.1515V3.25195Z" fill="white"/>
<path d="M19.9365 3.50139V3.42773H19.4849V3.50139H19.9365Z" fill="white"/>
<path d="M20.9282 3.50139V3.42773H20.4766V3.50139H20.9282Z" fill="white"/>
<path d="M20.5607 3.44531H20.4761V3.69116H20.5607V3.44531Z" fill="white"/>
<path d="M20.5607 3.44531H20.4761V3.69116H20.5607V3.44531Z" fill="white"/>
<path d="M20.5607 3.44531H20.4761V3.69116H20.5607V3.44531Z" fill="white"/>
<path d="M19.569 3.44531H19.4844V3.69116H19.569V3.44531Z" fill="white"/>
<path d="M20.2951 3.44531H20.2104V3.69116H20.2951V3.44531Z" fill="white"/>
<path d="M19.9357 3.44531H19.8511V3.69116H19.9357V3.44531Z" fill="white"/>
<path d="M20.2715 3.69084V3.61719H19.8897V3.69084H20.2715Z" fill="white"/>
<path d="M20.2954 3.50139V3.42773H20.0526V3.50139H20.2954Z" fill="white"/>
<path d="M2.38292 3.25195H1.14551V3.32561H2.38292V3.25195Z" fill="white"/>
<path d="M1.41473 3.62109H1.33008V3.69262H1.41473V3.62109Z" fill="white"/>
<path d="M2.38721 3.69084V3.61719H2.13917V3.69084H2.38721Z" fill="white"/>
<path d="M2.60467 3.25195H2.52002V3.69175H2.60467V3.25195Z" fill="white"/>
<path d="M3.01172 3.69084V3.61719H2.54307V3.69084H3.01172Z" fill="white"/>
<path d="M2.22381 3.44531H2.13916V3.69116H2.22381V3.44531Z" fill="white"/>
<path d="M3.02703 3.25195H2.94238V3.69175H3.02703V3.25195Z" fill="white"/>
<path d="M2.81463 3.25195H2.72998V3.69175H2.81463V3.25195Z" fill="white"/>
<path d="M1.59961 3.50139V3.42773H1.14797V3.50139H1.59961Z" fill="white"/>
<path d="M2.59131 3.50139V3.42773H2.13967V3.50139H2.59131Z" fill="white"/>
<path d="M2.22381 3.44531H2.13916V3.69116H2.22381V3.44531Z" fill="white"/>
<path d="M2.22381 3.44531H2.13916V3.69116H2.22381V3.44531Z" fill="white"/>
<path d="M2.22381 3.44531H2.13916V3.69116H2.22381V3.44531Z" fill="white"/>
<path d="M1.23211 3.44531H1.14746V3.69116H1.23211V3.44531Z" fill="white"/>
<path d="M1.95818 3.44531H1.87354V3.69116H1.95818V3.44531Z" fill="white"/>
<path d="M1.59881 3.44531H1.51416V3.69116H1.59881V3.44531Z" fill="white"/>
<path d="M1.93457 3.69084V3.61719H1.55279V3.69084H1.93457Z" fill="white"/>
<path d="M1.9585 3.50139V3.42773H1.71572V3.50139H1.9585Z" fill="white"/>
<path d="M4.19557 7.5293H4.04395V7.75846H4.19557V7.5293Z" fill="#D90000"/>
<path d="M8.24537 7.5293H8.09375V7.75846H8.24537V7.5293Z" fill="#D90000"/>
<path d="M1.0901 7.5293H0.938477V7.75846H1.0901V7.5293Z" fill="#D90000"/>
<path d="M3.14479 7.5293H2.99316V7.75846H3.14479V7.5293Z" fill="#D90000"/>
<path d="M5.18531 7.5293H5.03369V7.75846H5.18531V7.5293Z" fill="#D90000"/>
<path d="M6.19459 7.5293H6.04297V7.75846H6.19459V7.5293Z" fill="#D90000"/>
<path d="M7.22389 7.5293H7.07227V7.75846H7.22389V7.5293Z" fill="#D90000"/>
<path d="M9.25465 7.5293H9.10303V7.75846H9.25465V7.5293Z" fill="#D90000"/>
<path d="M14.3753 7.5293H14.2236V7.75846H14.3753V7.5293Z" fill="#D90000"/>
<path d="M10.2839 7.5293H10.1323V7.75846H10.2839V7.5293Z" fill="#D90000"/>
<path d="M11.2937 7.5293H11.1421V7.75846H11.2937V7.5293Z" fill="#D90000"/>
<path d="M12.3128 7.5293H12.1611V7.75846H12.3128V7.5293Z" fill="#D90000"/>
<path d="M13.3342 7.5293H13.1826V7.75846H13.3342V7.5293Z" fill="#D90000"/>
<path d="M21.4832 7.5293H21.3315V7.75846H21.4832V7.5293Z" fill="#D90000"/>
<path d="M15.363 7.5293H15.2114V7.75846H15.363V7.5293Z" fill="#D90000"/>
<path d="M16.3943 7.5293H16.2427V7.75846H16.3943V7.5293Z" fill="#D90000"/>
<path d="M17.4353 7.5293H17.2837V7.75846H17.4353V7.5293Z" fill="#D90000"/>
<path d="M18.4133 7.5293H18.2617V7.75846H18.4133V7.5293Z" fill="#D90000"/>
<path d="M19.4544 7.5293H19.3027V7.75846H19.4544V7.5293Z" fill="#D90000"/>
<path d="M20.4734 7.5293H20.3218V7.75846H20.4734V7.5293Z" fill="#D90000"/>
<path d="M23.492 7.5293H23.3403V7.75846H23.492V7.5293Z" fill="#D90000"/>
<path d="M22.5144 7.5293H22.3628V7.75846H22.5144V7.5293Z" fill="#D90000"/>
<path d="M2.11354 7.5293H1.96191V7.75846H2.11354V7.5293Z" fill="#D90000"/>
<path d="M4.19557 3.66992H4.04395V3.89909H4.19557V3.66992Z" fill="#239E3F"/>
<path d="M8.24537 3.66992H8.09375V3.89909H8.24537V3.66992Z" fill="#239E3F"/>
<path d="M1.0901 3.66992H0.938477V3.89909H1.0901V3.66992Z" fill="#239E3F"/>
<path d="M3.14479 3.66992H2.99316V3.89909H3.14479V3.66992Z" fill="#239E3F"/>
<path d="M5.18531 3.66992H5.03369V3.89909H5.18531V3.66992Z" fill="#239E3F"/>
<path d="M6.19459 3.66992H6.04297V3.89909H6.19459V3.66992Z" fill="#239E3F"/>
<path d="M7.22389 3.66992H7.07227V3.89909H7.22389V3.66992Z" fill="#239E3F"/>
<path d="M9.25465 3.66992H9.10303V3.89909H9.25465V3.66992Z" fill="#239E3F"/>
<path d="M14.3753 3.66992H14.2236V3.89909H14.3753V3.66992Z" fill="#239E3F"/>
<path d="M10.2839 3.66992H10.1323V3.89909H10.2839V3.66992Z" fill="#239E3F"/>
<path d="M11.2937 3.66992H11.1421V3.89909H11.2937V3.66992Z" fill="#239E3F"/>
<path d="M12.3128 3.66992H12.1611V3.89909H12.3128V3.66992Z" fill="#239E3F"/>
<path d="M13.3342 3.66992H13.1826V3.89909H13.3342V3.66992Z" fill="#239E3F"/>
<path d="M21.4832 3.66992H21.3315V3.89909H21.4832V3.66992Z" fill="#239E3F"/>
<path d="M15.363 3.66992H15.2114V3.89909H15.363V3.66992Z" fill="#239E3F"/>
<path d="M16.3943 3.66992H16.2427V3.89909H16.3943V3.66992Z" fill="#239E3F"/>
<path d="M17.4353 3.66992H17.2837V3.89909H17.4353V3.66992Z" fill="#239E3F"/>
<path d="M18.4133 3.66992H18.2617V3.89909H18.4133V3.66992Z" fill="#239E3F"/>
<path d="M19.4544 3.66992H19.3027V3.89909H19.4544V3.66992Z" fill="#239E3F"/>
<path d="M20.4734 3.66992H20.3218V3.89909H20.4734V3.66992Z" fill="#239E3F"/>
<path d="M23.492 3.66992H23.3403V3.89909H23.492V3.66992Z" fill="#239E3F"/>
<path d="M22.5144 3.66992H22.3628V3.89909H22.5144V3.66992Z" fill="#239E3F"/>
<path d="M2.11354 3.66992H1.96191V3.89909H2.11354V3.66992Z" fill="#239E3F"/>
<path fill-rule="evenodd" clip-rule="evenodd" d="M12.8353 4.43164C13.0485 4.6577 13.7057 5.90756 12.4387 6.72623C11.8432 7.11396 12.212 7.13355 12.2294 7.19884C13.187 6.75888 13.4995 6.16289 13.4923 5.62881C13.485 5.09496 13.1578 4.62303 12.8353 4.43164Z" fill="#DA0000"/>
<path fill-rule="evenodd" clip-rule="evenodd" d="M12.9634 4.37305C13.4363 4.58244 14.4652 5.63574 13.3577 6.8239C14.0459 6.69173 14.9206 4.93865 12.9634 4.37305Z" fill="#DA0000"/>
<path fill-rule="evenodd" clip-rule="evenodd" d="M11.5111 4.37305C11.0382 4.58244 10.0093 5.63574 11.1168 6.8239C10.4286 6.69173 9.55381 4.93865 11.5111 4.37305Z" fill="#DA0000"/>
<path fill-rule="evenodd" clip-rule="evenodd" d="M11.6356 4.43164C11.4224 4.6577 10.7652 5.90756 12.0322 6.72623C12.628 7.11396 12.2592 7.13355 12.2415 7.19884C11.2842 6.75888 10.9714 6.16289 10.9786 5.62881C10.9859 5.09496 11.3131 4.62303 11.6356 4.43164Z" fill="#DA0000"/>
<path fill-rule="evenodd" clip-rule="evenodd" d="M13.4512 7.08501C13.0764 7.08996 12.604 7.0402 12.2534 6.88281C12.3112 6.97986 12.3591 7.04087 12.4169 7.13792C12.7511 7.16471 13.2123 7.19759 13.4512 7.08501Z" fill="#DA0000"/>
<path fill-rule="evenodd" clip-rule="evenodd" d="M11.0557 7.08501C11.4302 7.08996 11.9026 7.0402 12.2529 6.88281C12.1954 6.97986 12.1475 7.04087 12.0897 7.13792C11.7555 7.16471 11.2946 7.19759 11.0557 7.08501Z" fill="#DA0000"/>
<path fill-rule="evenodd" clip-rule="evenodd" d="M11.7435 4.05859C11.8195 4.23309 12.0186 4.25853 12.2317 4.15564C12.3871 4.23647 12.6276 4.24142 12.7104 4.06692C12.7734 4.49855 12.2487 4.39656 12.2291 4.31212C12.0339 4.47536 11.6703 4.38102 11.7435 4.05859Z" fill="#DA0000"/>
<path fill-rule="evenodd" clip-rule="evenodd" d="M12.2453 7.35639L12.4424 7.16163L12.4705 4.53988L12.236 4.36133L12.0015 4.53177L12.0483 7.16973L12.2453 7.35639Z" fill="#DA0000"/>
</g>
<defs>
<clipPath id="clip0_2019_13979">
<rect width="22.5958" height="11.1692" fill="white" transform="translate(0.939453 0.123047)"/>
</clipPath>
</defs>
</svg>
