<svg width="173" height="50" viewBox="0 0 173 50" fill="none" xmlns="http://www.w3.org/2000/svg">
<rect x="122.917" width="50" height="50" fill="black"/>
<rect x="126.099" y="3.18237" width="43.6067" height="43.6067" fill="white"/>
<circle cx="155.204" cy="13.2109" r="4.32464" fill="#F19100"/>
<path d="M138.076 37.3839V12.922H147.727C149.574 12.922 151.151 13.2525 152.457 13.9134C153.771 14.5664 154.77 15.494 155.455 16.6964C156.148 17.8909 156.494 19.2963 156.494 20.9128C156.494 22.5372 156.144 23.9347 155.443 25.1052C154.742 26.2678 153.727 27.1596 152.397 27.7807C151.075 28.4018 149.475 28.7124 147.596 28.7124H141.134V24.5558H146.76C147.747 24.5558 148.567 24.4204 149.22 24.1497C149.873 23.8789 150.359 23.4728 150.677 22.9313C151.004 22.3899 151.167 21.717 151.167 20.9128C151.167 20.1005 151.004 19.4157 150.677 18.8583C150.359 18.3009 149.869 17.8789 149.208 17.5923C148.555 17.2976 147.731 17.1503 146.736 17.1503H143.248V37.3839H138.076ZM151.286 26.2518L157.366 37.3839H151.657L145.708 26.2518H151.286Z" fill="black"/>
<path d="M3.59987 41.3714C3.29036 41.3714 3.0002 41.3134 2.72939 41.1973C2.45857 41.0813 2.22644 40.9265 2.033 40.7331C1.83956 40.5319 1.6848 40.2998 1.56874 40.0367C1.46041 39.7659 1.40625 39.4796 1.40625 39.1778V37.1699H2.35798V39.1198C2.35798 39.437 2.46244 39.704 2.67135 39.9206C2.88027 40.1295 3.14722 40.234 3.4722 40.234H11.2369C11.4149 40.234 11.5619 40.1721 11.678 40.0483C11.8018 39.9245 11.8637 39.7736 11.8637 39.5956V38.7948C11.8637 38.6014 11.7979 38.4389 11.6664 38.3073C11.5348 38.168 11.3723 38.0984 11.1789 38.0984H5.67743L4.98104 37.4484L8.1496 33.7344L8.84599 34.3727L6.57112 37.0538H11.0976C11.3375 37.0538 11.5619 37.1003 11.7708 37.1931C11.9797 37.2782 12.1616 37.402 12.3163 37.5645C12.4711 37.7193 12.591 37.9011 12.6761 38.11C12.769 38.3189 12.8154 38.5395 12.8154 38.7716V39.5028C12.8231 39.704 12.8966 39.8781 13.0359 40.0251C13.1829 40.1644 13.357 40.234 13.5582 40.234H14.0921C14.1385 40.234 14.1772 40.2533 14.2082 40.292C14.2391 40.323 14.2546 40.3617 14.2546 40.4081V41.1973C14.2546 41.2438 14.2391 41.2863 14.2082 41.325C14.1772 41.356 14.1385 41.3714 14.0921 41.3714H13.7323C13.4615 41.3714 13.2061 41.3134 12.9663 41.1973C12.7341 41.0813 12.5368 40.9188 12.3744 40.7099C12.2196 40.9188 12.03 41.0813 11.8056 41.1973C11.589 41.3134 11.353 41.3714 11.0976 41.3714H3.59987ZM4.35429 36.0789L6.81486 33.1773L7.31394 33.6299L4.86497 36.4967L4.35429 36.0789Z" fill="black"/>
<path d="M15.7412 36.3807H16.8438V35.278H15.7412V36.3807ZM18.3759 41.2089C18.3759 41.2476 18.3604 41.2863 18.3295 41.325C18.2985 41.356 18.2598 41.3714 18.2134 41.3714H17.4358C17.312 41.3714 17.1843 41.3521 17.0527 41.3134C16.9212 41.2747 16.7974 41.2244 16.6813 41.1625C16.5653 41.0929 16.4647 41.0116 16.3796 40.9188C16.2945 40.8259 16.2326 40.7292 16.1939 40.6286C16.0701 40.8375 15.8805 41.0155 15.6252 41.1625C15.3775 41.3018 15.1222 41.3714 14.8591 41.3714H14.0931C13.9848 41.3714 13.9306 41.3173 13.9306 41.2089V40.3965C13.9306 40.2882 13.9848 40.234 14.0931 40.234H14.9172C15.1183 40.234 15.2924 40.1721 15.4395 40.0483C15.5942 39.9245 15.6909 39.7659 15.7296 39.5724L16.1242 37.6458L17.0644 37.8082L16.7394 39.4215C16.7007 39.6305 16.751 39.82 16.8903 39.9903C17.0373 40.1528 17.223 40.234 17.4474 40.234H18.2134C18.3217 40.234 18.3759 40.2882 18.3759 40.3965V41.2089Z" fill="black"/>
<path d="M18.892 43.8668H19.983V42.7642H18.892V43.8668ZM20.5866 43.8668H21.6892V42.7642H20.5866V43.8668ZM22.5016 41.2089C22.5016 41.2476 22.4861 41.2863 22.4552 41.325C22.4242 41.356 22.3856 41.3714 22.3391 41.3714H21.5615C21.4377 41.3714 21.31 41.3521 21.1785 41.3134C21.0469 41.2747 20.9231 41.2244 20.8071 41.1625C20.691 41.0929 20.5904 41.0116 20.5053 40.9188C20.4202 40.8259 20.3583 40.7292 20.3196 40.6286C20.1958 40.8375 20.0062 41.0155 19.7509 41.1625C19.5033 41.3018 19.2479 41.3714 18.9849 41.3714H18.2188C18.1105 41.3714 18.0563 41.3173 18.0563 41.2089V40.3965C18.0563 40.2882 18.1105 40.234 18.2188 40.234H19.0429C19.2441 40.234 19.4182 40.1721 19.5652 40.0483C19.7199 39.9245 19.8167 39.7659 19.8553 39.5724L20.25 37.6458L21.1901 37.8082L20.8651 39.4215C20.8264 39.6305 20.8767 39.82 21.016 39.9903C21.163 40.1528 21.3487 40.234 21.5731 40.234H22.3391C22.4475 40.234 22.5016 40.2882 22.5016 40.3965V41.2089Z" fill="black"/>
<path d="M22.9713 36.3807H24.0739V35.278H22.9713V36.3807ZM24.6775 36.3807H25.7801V35.278H24.6775V36.3807ZM26.6273 41.2089C26.6273 41.2476 26.6119 41.2863 26.5809 41.325C26.55 41.356 26.5113 41.3714 26.4649 41.3714H25.6872C25.5634 41.3714 25.4358 41.3521 25.3042 41.3134C25.1727 41.2747 25.0489 41.2244 24.9328 41.1625C24.8167 41.0929 24.7162 41.0116 24.631 40.9188C24.5459 40.8259 24.484 40.7292 24.4453 40.6286C24.3215 40.8375 24.132 41.0155 23.8766 41.1625C23.629 41.3018 23.3737 41.3714 23.1106 41.3714H22.3446C22.2362 41.3714 22.1821 41.3173 22.1821 41.2089V40.3965C22.1821 40.2882 22.2362 40.234 22.3446 40.234H23.1686C23.3698 40.234 23.5439 40.1721 23.6909 40.0483C23.8457 39.9245 23.9424 39.7659 23.9811 39.5724L24.3757 37.6458L25.3158 37.8082L24.9908 39.4215C24.9521 39.6305 25.0024 39.82 25.1417 39.9903C25.2887 40.1528 25.4744 40.234 25.6988 40.234H26.4649C26.5732 40.234 26.6273 40.2882 26.6273 40.3965V41.2089Z" fill="black"/>
<path d="M27.7122 38.1216L27.0042 37.4601L30.1728 33.7576L30.8691 34.396L28.5943 37.077H33.1208C33.3607 37.077 33.5851 37.1235 33.794 37.2163C34.0029 37.3014 34.1847 37.4214 34.3395 37.5761C34.4942 37.7309 34.6142 37.9127 34.6993 38.1216C34.7921 38.3305 34.8386 38.5549 34.8386 38.7948V39.6537C34.8386 39.8935 34.7921 40.1218 34.6993 40.3385C34.6064 40.5474 34.4788 40.7292 34.3163 40.884C34.1615 41.031 33.9758 41.1509 33.7592 41.2438C33.5502 41.3289 33.3297 41.3714 33.0976 41.3714H26.4703C26.4239 41.3714 26.3852 41.356 26.3542 41.325C26.3233 41.2863 26.3078 41.2476 26.3078 41.2089V40.3965C26.3078 40.2882 26.362 40.234 26.4703 40.234H33.2485C33.4187 40.234 33.5657 40.1721 33.6895 40.0483C33.8211 39.9245 33.8868 39.7736 33.8868 39.5956V38.818C33.8946 38.6168 33.8288 38.4505 33.6895 38.3189C33.558 38.1874 33.3955 38.1216 33.202 38.1216H27.7122Z" fill="black"/>
<path d="M34.1852 44.2847L33.8835 43.3445L35.3807 42.8571C35.7057 42.7487 35.961 42.5592 36.1467 42.2883C36.3402 42.0175 36.4369 41.7158 36.4369 41.383V37.5877H37.3886V41.2902C37.3886 41.5765 37.3461 41.8473 37.2609 42.1026C37.1758 42.3657 37.0559 42.6056 36.9011 42.8222C36.7464 43.0466 36.5607 43.2401 36.344 43.4026C36.1274 43.5728 35.8836 43.7043 35.6128 43.7972L34.1852 44.2847Z" fill="black"/>
<path d="M41.4626 41.2089C41.4626 41.3173 41.4084 41.3714 41.3001 41.3714H40.8939C40.6385 41.3714 40.3986 41.325 40.1743 41.2322C39.9499 41.1316 39.7526 40.9962 39.5823 40.8259C39.4121 40.6557 39.2767 40.4584 39.1761 40.234C39.0832 40.0019 39.0368 39.7581 39.0368 39.5028V33.6183H39.9886V39.4912C39.9886 39.6924 40.0621 39.8665 40.2091 40.0135C40.3561 40.1605 40.5302 40.234 40.7314 40.234H41.3001C41.3465 40.234 41.3852 40.2533 41.4161 40.292C41.4471 40.323 41.4626 40.3617 41.4626 40.4081V41.2089Z" fill="black"/>
<path d="M43.9884 40.234H45.7062V38.7716C45.7062 38.5936 45.6443 38.4466 45.5205 38.3305C45.3967 38.2067 45.2458 38.1448 45.0678 38.1448H44.2438C44.089 38.1448 43.9536 38.1913 43.8375 38.2841C43.7292 38.377 43.6596 38.5008 43.6286 38.6555L43.4429 39.584C43.412 39.7543 43.4507 39.9051 43.559 40.0367C43.6673 40.1682 43.8105 40.234 43.9884 40.234ZM42.468 39.5724L42.7001 38.377C42.7775 37.9978 42.9632 37.6844 43.2572 37.4368C43.559 37.1892 43.9033 37.0654 44.2902 37.0654H44.9402C45.18 37.0654 45.4044 37.1119 45.6133 37.2047C45.8222 37.2898 46.0041 37.4098 46.1588 37.5645C46.3136 37.7193 46.4335 37.9011 46.5186 38.11C46.6115 38.3189 46.6579 38.5433 46.6579 38.7832V40.1992C46.6579 40.5396 46.5496 40.8221 46.3329 41.0464C46.1163 41.2631 45.8377 41.3714 45.4973 41.3714H44.0929C43.853 41.3714 43.6286 41.3173 43.4197 41.2089C43.2108 41.1006 43.0367 40.911 42.8974 40.6402C42.7427 40.911 42.5492 41.1006 42.3171 41.2089C42.0927 41.3173 41.8567 41.3714 41.6091 41.3714H41.2957C41.1874 41.3714 41.1332 41.3173 41.1332 41.2089V40.3965C41.1332 40.3578 41.1487 40.323 41.1797 40.292C41.2106 40.2533 41.2493 40.234 41.2957 40.234H41.6671C41.8606 40.234 42.0308 40.1721 42.1778 40.0483C42.3326 39.9245 42.4293 39.7659 42.468 39.5724Z" fill="black"/>
<path d="M51.958 43.4026C51.6253 43.4026 51.3119 43.3368 51.0179 43.2053C50.7238 43.0814 50.4685 42.9112 50.2518 42.6946C50.0352 42.4779 49.8611 42.2226 49.7295 41.9285C49.6057 41.6345 49.5438 41.3211 49.5438 40.9884V38.11L50.4956 38.1216V40.8375C50.4956 41.031 50.5343 41.2128 50.6116 41.383C50.689 41.561 50.7896 41.7158 50.9134 41.8473C51.0449 41.9788 51.1997 42.0794 51.3777 42.1491C51.5556 42.2264 51.7413 42.2651 51.9348 42.2651H53.9775C54.14 42.2651 54.2947 42.2342 54.4418 42.1723C54.5888 42.1104 54.7164 42.0253 54.8248 41.9169C54.9331 41.8086 55.0182 41.6809 55.0801 41.5339C55.142 41.3946 55.173 41.2438 55.173 41.0813V33.6183H56.1247V41.2438C56.1247 41.5455 56.0667 41.8241 55.9506 42.0794C55.8423 42.3425 55.6875 42.5708 55.4863 42.7642C55.2929 42.9654 55.0646 43.1201 54.8016 43.2285C54.5462 43.3445 54.2677 43.4026 53.9659 43.4026H51.958Z" fill="black"/>
<path d="M60.0624 41.2089C60.0624 41.3173 60.0082 41.3714 59.8999 41.3714H59.4937C59.2383 41.3714 58.9984 41.325 58.7741 41.2322C58.5497 41.1316 58.3524 40.9962 58.1821 40.8259C58.0119 40.6557 57.8765 40.4584 57.7759 40.234C57.683 40.0019 57.6366 39.7581 57.6366 39.5028V33.6183H58.5883V39.4912C58.5883 39.6924 58.6619 39.8665 58.8089 40.0135C58.9559 40.1605 59.13 40.234 59.3312 40.234H59.8999C59.9463 40.234 59.985 40.2533 60.0159 40.292C60.0469 40.323 60.0624 40.3617 60.0624 40.4081V41.2089Z" fill="black"/>
<path d="M60.5223 36.3807H61.6249V35.278H60.5223V36.3807ZM62.2284 36.3807H63.331V35.278H62.2284V36.3807ZM64.1783 41.2089C64.1783 41.2476 64.1628 41.2863 64.1319 41.325C64.1009 41.356 64.0622 41.3714 64.0158 41.3714H63.2382C63.1144 41.3714 62.9867 41.3521 62.8552 41.3134C62.7236 41.2747 62.5998 41.2244 62.4838 41.1625C62.3677 41.0929 62.2671 41.0116 62.182 40.9188C62.0969 40.8259 62.035 40.7292 61.9963 40.6286C61.8725 40.8375 61.6829 41.0155 61.4276 41.1625C61.18 41.3018 60.9246 41.3714 60.6616 41.3714H59.8955C59.7872 41.3714 59.733 41.3173 59.733 41.2089V40.3965C59.733 40.2882 59.7872 40.234 59.8955 40.234H60.7196C60.9208 40.234 61.0949 40.1721 61.2419 40.0483C61.3966 39.9245 61.4933 39.7659 61.532 39.5724L61.9267 37.6458L62.8668 37.8082L62.5418 39.4215C62.5031 39.6305 62.5534 39.82 62.6927 39.9903C62.8397 40.1528 63.0254 40.234 63.2498 40.234H64.0158C64.1241 40.234 64.1783 40.2882 64.1783 40.3965V41.2089Z" fill="black"/>
<path d="M64.6944 43.8668H65.7854V42.7642H64.6944V43.8668ZM66.389 43.8668H67.4916V42.7642H66.389V43.8668ZM68.304 41.2089C68.304 41.2476 68.2886 41.2863 68.2576 41.325C68.2267 41.356 68.188 41.3714 68.1416 41.3714H67.3639C67.2401 41.3714 67.1124 41.3521 66.9809 41.3134C66.8494 41.2747 66.7256 41.2244 66.6095 41.1625C66.4934 41.0929 66.3928 41.0116 66.3077 40.9188C66.2226 40.8259 66.1607 40.7292 66.122 40.6286C65.9982 40.8375 65.8086 41.0155 65.5533 41.1625C65.3057 41.3018 65.0504 41.3714 64.7873 41.3714H64.0213C63.9129 41.3714 63.8588 41.3173 63.8588 41.2089V40.3965C63.8588 40.2882 63.9129 40.234 64.0213 40.234H64.8453C65.0465 40.234 65.2206 40.1721 65.3676 40.0483C65.5224 39.9245 65.6191 39.7659 65.6578 39.5724L66.0524 37.6458L66.9925 37.8082L66.6675 39.4215C66.6288 39.6305 66.6791 39.82 66.8184 39.9903C66.9654 40.1528 67.1511 40.234 67.3755 40.234H68.1416C68.2499 40.234 68.304 40.2882 68.304 40.3965V41.2089Z" fill="black"/>
<path d="M68.147 41.3714C68.0387 41.3714 67.9845 41.3173 67.9845 41.2089V40.3965C67.9845 40.3578 68.0038 40.323 68.0425 40.292C68.0735 40.2533 68.1083 40.234 68.147 40.234H70.0969C70.4528 40.234 70.7971 40.176 71.1298 40.0599C71.4703 39.9438 71.7643 39.762 72.0119 39.5144L72.9288 38.6439C72.9908 38.582 73.0527 38.5278 73.1146 38.4814L70.4567 37.6922C70.3329 37.6535 70.2168 37.6651 70.1085 37.727C70.0079 37.7889 69.9383 37.8779 69.8996 37.994L69.5514 38.9921L68.7157 38.7716L68.9943 37.7966C69.0562 37.5955 69.149 37.4214 69.2728 37.2744C69.4044 37.1196 69.5552 36.9997 69.7255 36.9146C69.8957 36.8217 70.0775 36.7637 70.271 36.7405C70.4644 36.7172 70.654 36.7366 70.8397 36.7985L75.3662 38.1564L75.076 39.0734L74.577 38.9225C74.4222 38.8683 74.2791 38.8606 74.1475 38.8993C74.0237 38.9379 73.9115 38.996 73.8109 39.0734V39.4912C73.8109 39.7001 73.8806 39.8781 74.0199 40.0251C74.1669 40.1644 74.3448 40.234 74.5538 40.234H76.0974C76.2057 40.234 76.2599 40.2882 76.2599 40.3965V41.2089C76.2599 41.3173 76.2057 41.3714 76.0974 41.3714H74.7162C74.4841 41.3714 74.2713 41.3327 74.0779 41.2554C73.8844 41.178 73.7103 41.0697 73.5556 40.9304C73.4086 40.7911 73.2848 40.6286 73.1842 40.4429C73.0913 40.2572 73.0256 40.056 72.9869 39.8394L72.3021 40.4777C71.9771 40.7795 71.6135 41.0039 71.2111 41.1509C70.8087 41.2979 70.387 41.3714 69.946 41.3714H68.147ZM71.3388 42.7758H72.4414V43.8784H71.3388V42.7758Z" fill="black"/>
<path d="M76.1853 42.7642H77.2763V43.8668H76.1853V42.7642ZM77.8798 42.7642H78.9824V43.8668H77.8798V42.7642ZM78.3905 40.234C78.5917 40.234 78.7658 40.1605 78.9128 40.0135C79.0598 39.8665 79.1333 39.6924 79.1333 39.4912V37.2627H80.085V39.4912C80.085 39.7465 80.0347 39.9903 79.9342 40.2224C79.8413 40.4468 79.7098 40.6441 79.5395 40.8143C79.3693 40.9845 79.1681 41.12 78.936 41.2205C78.7116 41.3211 78.4679 41.3714 78.2048 41.3714H76.0924C76.046 41.3714 76.0073 41.356 75.9764 41.325C75.9454 41.2863 75.9299 41.2476 75.9299 41.2089V40.4081C75.9299 40.3617 75.9454 40.323 75.9764 40.292C76.0073 40.2533 76.046 40.234 76.0924 40.234H78.3905Z" fill="black"/>
<path d="M83.182 41.3714C82.9963 41.3714 82.8222 41.3366 82.6597 41.267C82.4972 41.1896 82.354 41.0929 82.2302 40.9768C82.1064 40.853 82.0097 40.7099 81.9401 40.5474C81.8704 40.3771 81.8356 40.1992 81.8356 40.0135V38.6903H82.6481V39.8162C82.6481 39.9322 82.6829 40.0328 82.7525 40.1179C82.8222 40.1953 82.9228 40.234 83.0543 40.234H84.8997C85.1009 40.234 85.2711 40.1914 85.4104 40.1063C85.5497 40.0135 85.6503 39.9013 85.7122 39.7697C85.7818 39.6305 85.8166 39.4834 85.8166 39.3287C85.8166 39.1739 85.7779 39.0308 85.7006 38.8993L84.331 36.4503L85.1319 35.9164L86.5362 38.4118C86.7297 38.7522 86.8225 39.1004 86.8148 39.4564C86.8071 39.8046 86.7219 40.1218 86.5594 40.4081C86.397 40.6866 86.1687 40.9188 85.8747 41.1045C85.5884 41.2824 85.2557 41.3714 84.8765 41.3714H83.182Z" fill="black"/>
<path d="M101.691 39.526C101.691 39.7117 101.765 39.8781 101.912 40.0251C102.059 40.1644 102.233 40.234 102.434 40.234H102.91C103.018 40.234 103.073 40.2882 103.073 40.3965V41.1973C103.073 41.2438 103.057 41.2863 103.026 41.325C102.995 41.356 102.957 41.3714 102.91 41.3714H102.597C102.318 41.3714 102.059 41.3095 101.819 41.1857C101.579 41.0619 101.374 40.8762 101.204 40.6286C101.034 40.8762 100.821 41.0619 100.566 41.1857C100.318 41.3095 100.055 41.3714 99.7764 41.3714C99.5133 41.3714 99.2734 41.3095 99.0568 41.1857C98.8401 41.0619 98.6622 40.8762 98.5229 40.6286C98.3527 40.884 98.1554 41.0735 97.931 41.1973C97.7143 41.3134 97.4706 41.3714 97.1998 41.3714C97.0373 41.3714 96.8709 41.3443 96.7007 41.2902C96.5305 41.2283 96.3796 41.1122 96.248 40.942V41.3598C96.248 41.6384 96.19 41.9015 96.0739 42.1491C95.9579 42.3967 95.7992 42.6133 95.5981 42.799C95.4046 42.9847 95.1764 43.1317 94.9133 43.2401C94.6579 43.3484 94.3871 43.4026 94.1008 43.4026H92.0929C91.7602 43.4026 91.4468 43.3368 91.1528 43.2053C90.8588 43.0814 90.6034 42.9074 90.3868 42.683C90.1701 42.4663 89.996 42.211 89.8645 41.9169C89.7407 41.6229 89.6788 41.3095 89.6788 40.9768V37.785H90.6305V40.8259C90.6305 41.0194 90.6692 41.2051 90.7466 41.383C90.8239 41.561 90.9245 41.7119 91.0483 41.8357C91.1799 41.9672 91.3346 42.0717 91.5126 42.1491C91.6906 42.2264 91.8763 42.2651 92.0697 42.2651H94.1124C94.2749 42.2651 94.4297 42.2342 94.5767 42.1723C94.7237 42.1104 94.8475 42.0253 94.9481 41.9169C95.0564 41.8086 95.1415 41.6809 95.2034 41.5339C95.2653 41.3869 95.2963 41.2322 95.2963 41.0697V37.5877H96.248V39.5028C96.248 39.704 96.3215 39.8781 96.4685 40.0251C96.6233 40.1644 96.8013 40.234 97.0024 40.234H97.2462C97.4474 40.234 97.6215 40.1721 97.7685 40.0483C97.9232 39.9245 98.0199 39.7659 98.0586 39.5724L98.4416 37.6458L99.3818 37.8199L99.0684 39.4215C99.0529 39.5299 99.0607 39.6343 99.0916 39.7349C99.1226 39.8278 99.169 39.9129 99.2309 39.9903C99.2928 40.0676 99.3702 40.1295 99.463 40.176C99.5636 40.2147 99.6681 40.234 99.7764 40.234H99.9853C100.186 40.234 100.361 40.1644 100.508 40.0251C100.655 39.8781 100.728 39.704 100.728 39.5028V37.2511H101.691V39.526Z" fill="black"/>
<path d="M104.511 40.234C104.713 40.234 104.887 40.1605 105.034 40.0135C105.181 39.8665 105.254 39.6924 105.254 39.4912V37.2627H106.206V39.4912C106.206 39.7465 106.156 39.9903 106.055 40.2224C105.962 40.4468 105.831 40.6441 105.66 40.8143C105.49 40.9845 105.289 41.12 105.057 41.2205C104.832 41.3211 104.589 41.3714 104.326 41.3714H102.91C102.863 41.3714 102.825 41.356 102.794 41.325C102.763 41.2863 102.747 41.2476 102.747 41.2089V40.4081C102.747 40.3617 102.763 40.323 102.794 40.292C102.825 40.2533 102.863 40.234 102.91 40.234H104.511ZM105.138 35.986H106.241V34.8834H105.138V35.986Z" fill="black"/>
<path d="M108.675 41.3714H107.723V33.6183H108.675V41.3714Z" fill="black"/>
<path d="M108.176 44.2847L107.875 43.3445L109.372 42.8571C109.697 42.7487 109.952 42.5592 110.138 42.2883C110.331 42.0175 110.428 41.7158 110.428 41.383V37.5877H111.38V41.2902C111.38 41.5765 111.337 41.8473 111.252 42.1026C111.167 42.3657 111.047 42.6056 110.892 42.8222C110.738 43.0466 110.552 43.2401 110.335 43.4026C110.119 43.5728 109.875 43.7043 109.604 43.7972L108.176 44.2847ZM112.297 36.3226H111.194V35.22H112.297V36.3226ZM110.591 36.3226H109.488V35.22H110.591V36.3226ZM111.426 34.7906H110.324V33.688H111.426V34.7906Z" fill="black"/>
<path d="M114.384 41.3714H113.432V34.5468H114.384V41.3714ZM111.946 34.2451V33.746C111.946 33.452 112.039 33.2198 112.225 33.0496C112.411 32.8716 112.639 32.7827 112.91 32.7827H115.185V33.6183H112.956C112.879 33.6183 112.813 33.6493 112.759 33.7112C112.705 33.7653 112.678 33.8272 112.678 33.8969V34.2451H111.946Z" fill="black"/>
<path d="M21.9603 9.20374C22.0913 11.4314 22.1568 13.0956 22.1568 14.1964C22.1568 14.9433 21.9996 15.5723 21.6851 16.0834C21.3837 16.5944 20.9775 16.9744 20.4664 17.2234C19.9684 17.4724 19.4246 17.5969 18.8349 17.5969C17.6556 17.5969 16.8759 17.1841 16.4959 16.3586C16.2469 16.8303 15.9062 17.1579 15.4737 17.3414C15.0544 17.5117 14.6351 17.5969 14.2158 17.5969C13.744 17.5969 13.3509 17.5379 13.0364 17.42C12.735 17.302 12.486 17.1055 12.2895 16.8303C12.3288 17.6165 12.3484 18.3045 12.3484 18.8942C12.3484 19.6673 11.9946 20.3029 11.287 20.8008C10.5794 21.2988 9.72761 21.6591 8.73171 21.8819C7.7489 22.1047 6.83162 22.2161 5.97985 22.2161C4.14528 22.2161 2.82833 21.8688 2.02898 21.1743C1.22963 20.4798 0.829956 19.4446 0.829956 18.0686C0.829956 17.5838 0.980653 16.4699 1.28205 14.7271L1.77345 11.5625L3.77837 11.9949C3.26731 15.0613 3.01178 16.922 3.01178 17.5772C3.01178 18.0883 3.30662 18.4421 3.89631 18.6387C4.48599 18.8352 5.1805 18.9335 5.97985 18.9335C6.87093 18.9335 7.65717 18.8811 8.33858 18.7763C9.02 18.6714 9.60968 18.4945 10.1076 18.2455L9.26242 10.9138L11.7784 10.4028L11.8767 11.4249L12.0536 13.2332C12.106 13.6526 12.237 13.9409 12.4467 14.0981C12.6695 14.2422 13.0364 14.3143 13.5474 14.3143C14.124 14.3143 14.6482 14.2357 15.1199 14.0784L14.943 10.501L17.2035 10.4224L17.2821 14.1571C17.5704 14.2619 17.898 14.3143 18.2649 14.3143C18.9463 14.3143 19.5032 14.2291 19.9357 14.0588L19.4443 9.63617L21.9603 9.20374ZM15.3755 1.85236L17.2428 3.36588L15.7293 5.25286L13.8423 3.73934L15.3755 1.85236ZM13.8816 5.17424L15.7686 6.68776L14.2551 8.57474L12.3681 7.06122L13.8816 5.17424ZM17.0069 5.17424L18.8939 6.68776L17.3804 8.57474L15.4934 7.06122L17.0069 5.17424Z" fill="black"/>
<path d="M33.3362 14.3143C33.3755 14.3143 33.4148 14.3995 33.4542 14.5698C33.4935 14.7271 33.5131 14.904 33.5131 15.1006V16.8106C33.5131 17.0203 33.4935 17.2038 33.4542 17.361C33.4148 17.5183 33.3755 17.5969 33.3362 17.5969H31.7048C31.3772 18.8942 30.7285 20.067 29.7588 21.1153C28.8022 22.1768 27.4656 23.0547 25.749 23.7492L24.0389 21.2529C25.2314 20.8336 26.2928 20.2767 27.2232 19.5822C28.1667 18.9007 28.8743 18.2062 29.346 17.4986C28.8219 17.5641 28.2977 17.5969 27.7735 17.5969C27.197 17.5969 26.7645 17.5772 26.4762 17.5379C26.188 17.4855 25.9455 17.3938 25.749 17.2627C25.5524 17.1186 25.3427 16.8958 25.12 16.5944C24.8972 16.2799 24.7465 16.0244 24.6679 15.8278C24.6024 15.6313 24.5696 15.3626 24.5696 15.0219C24.5696 14.0653 24.7072 13.1808 24.9824 12.3684C25.2576 11.5428 25.6769 10.8811 26.2404 10.3831C26.8038 9.88515 27.5049 9.63617 28.3436 9.63617C29.3395 9.63617 30.1519 10.0752 30.7809 10.9531C31.4099 11.818 31.7899 12.9384 31.921 14.3143H33.3362ZM26.6728 14.7664C27.2887 14.8581 27.8194 14.904 28.2649 14.904C28.907 14.904 29.4247 14.8647 29.8178 14.7861C29.8178 13.9736 29.6671 13.3643 29.3657 12.958C29.0643 12.5387 28.6646 12.3291 28.1667 12.3291C27.7211 12.3291 27.3608 12.5453 27.0856 12.9777C26.8104 13.397 26.6728 13.9933 26.6728 14.7664Z" fill="black"/>
<path d="M38.0331 14.3143C38.0724 14.3143 38.1117 14.3995 38.151 14.5698C38.1904 14.7271 38.21 14.904 38.21 15.1006V16.8106C38.21 17.0203 38.1904 17.2038 38.151 17.361C38.1117 17.5183 38.0724 17.5969 38.0331 17.5969H33.3353C33.2829 17.5969 33.2436 17.5248 33.2174 17.3807C33.178 17.2234 33.1584 17.0334 33.1584 16.8106V15.1006C33.1584 14.8909 33.178 14.7074 33.2174 14.5502C33.2436 14.3929 33.2829 14.3143 33.3353 14.3143H38.0331Z" fill="black"/>
<path d="M42.736 14.3143C42.7753 14.3143 42.8146 14.3995 42.8539 14.5698C42.8932 14.7271 42.9129 14.904 42.9129 15.1006V16.8106C42.9129 17.0203 42.8932 17.2038 42.8539 17.361C42.8146 17.5183 42.7753 17.5969 42.736 17.5969H38.0382C37.9858 17.5969 37.9464 17.5248 37.9202 17.3807C37.8809 17.2234 37.8613 17.0334 37.8613 16.8106V15.1006C37.8613 14.8909 37.8809 14.7074 37.9202 14.5502C37.9464 14.3929 37.9858 14.3143 38.0382 14.3143H42.736Z" fill="black"/>
<path d="M47.4388 14.3143C47.4782 14.3143 47.5175 14.3995 47.5568 14.5698C47.5961 14.7271 47.6158 14.904 47.6158 15.1006V16.8106C47.6158 17.0203 47.5961 17.2038 47.5568 17.361C47.5175 17.5183 47.4782 17.5969 47.4388 17.5969H42.741C42.6886 17.5969 42.6493 17.5248 42.6231 17.3807C42.5838 17.2234 42.5641 17.0334 42.5641 16.8106V15.1006C42.5641 14.8909 42.5838 14.7074 42.6231 14.5502C42.6493 14.3929 42.6886 14.3143 42.741 14.3143H47.4388Z" fill="black"/>
<path d="M52.1417 14.3143C52.181 14.3143 52.2203 14.3995 52.2597 14.5698C52.299 14.7271 52.3186 14.904 52.3186 15.1006V16.8106C52.3186 17.0203 52.299 17.2038 52.2597 17.361C52.2203 17.5183 52.181 17.5969 52.1417 17.5969H47.4439C47.3915 17.5969 47.3522 17.5248 47.326 17.3807C47.2867 17.2234 47.267 17.0334 47.267 16.8106V15.1006C47.267 14.8909 47.2867 14.7074 47.326 14.5502C47.3522 14.3929 47.3915 14.3143 47.4439 14.3143H52.1417Z" fill="black"/>
<path d="M56.8446 14.3143C56.8839 14.3143 56.9232 14.3995 56.9625 14.5698C57.0018 14.7271 57.0215 14.904 57.0215 15.1006V16.8106C57.0215 17.0203 57.0018 17.2038 56.9625 17.361C56.9232 17.5183 56.8839 17.5969 56.8446 17.5969H52.1468C52.0944 17.5969 52.0551 17.5248 52.0289 17.3807C51.9895 17.2234 51.9699 17.0334 51.9699 16.8106V15.1006C51.9699 14.8909 51.9895 14.7074 52.0289 14.5502C52.0551 14.3929 52.0944 14.3143 52.1468 14.3143H56.8446Z" fill="black"/>
<path d="M61.5475 14.3143C61.5868 14.3143 61.6261 14.3995 61.6654 14.5698C61.7047 14.7271 61.7244 14.904 61.7244 15.1006V16.8106C61.7244 17.0203 61.7047 17.2038 61.6654 17.361C61.6261 17.5183 61.5868 17.5969 61.5475 17.5969H56.8497C56.7972 17.5969 56.7579 17.5248 56.7317 17.3807C56.6924 17.2234 56.6728 17.0334 56.6728 16.8106V15.1006C56.6728 14.8909 56.6924 14.7074 56.7317 14.5502C56.7579 14.3929 56.7972 14.3143 56.8497 14.3143H61.5475Z" fill="black"/>
<path d="M66.2503 14.3143C66.2897 14.3143 66.329 14.3995 66.3683 14.5698C66.4076 14.7271 66.4272 14.904 66.4272 15.1006V16.8106C66.4272 17.0203 66.4076 17.2038 66.3683 17.361C66.329 17.5183 66.2897 17.5969 66.2503 17.5969H61.5525C61.5001 17.5969 61.4608 17.5248 61.4346 17.3807C61.3953 17.2234 61.3756 17.0334 61.3756 16.8106V15.1006C61.3756 14.8909 61.3953 14.7074 61.4346 14.5502C61.4608 14.3929 61.5001 14.3143 61.5525 14.3143H66.2503Z" fill="black"/>
<path d="M70.9532 14.3143C70.9925 14.3143 71.0318 14.3995 71.0712 14.5698C71.1105 14.7271 71.1301 14.904 71.1301 15.1006V16.8106C71.1301 17.0203 71.1105 17.2038 71.0712 17.361C71.0318 17.5183 70.9925 17.5969 70.9532 17.5969H66.2554C66.203 17.5969 66.1637 17.5248 66.1375 17.3807C66.0982 17.2234 66.0785 17.0334 66.0785 16.8106V15.1006C66.0785 14.8909 66.0982 14.7074 66.1375 14.5502C66.1637 14.3929 66.203 14.3143 66.2554 14.3143H70.9532Z" fill="black"/>
<path d="M75.6561 14.3143C75.6954 14.3143 75.7347 14.3995 75.774 14.5698C75.8133 14.7271 75.833 14.904 75.833 15.1006V16.8106C75.833 17.0203 75.8133 17.2038 75.774 17.361C75.7347 17.5183 75.6954 17.5969 75.6561 17.5969H70.9583C70.9059 17.5969 70.8666 17.5248 70.8403 17.3807C70.801 17.2234 70.7814 17.0334 70.7814 16.8106V15.1006C70.7814 14.8909 70.801 14.7074 70.8403 14.5502C70.8666 14.3929 70.9059 14.3143 70.9583 14.3143H75.6561Z" fill="black"/>
<path d="M80.359 14.3143C80.3983 14.3143 80.4376 14.3995 80.4769 14.5698C80.5162 14.7271 80.5359 14.904 80.5359 15.1006V16.8106C80.5359 17.0203 80.5162 17.2038 80.4769 17.361C80.4376 17.5183 80.3983 17.5969 80.359 17.5969H75.6612C75.6087 17.5969 75.5694 17.5248 75.5432 17.3807C75.5039 17.2234 75.4843 17.0334 75.4843 16.8106V15.1006C75.4843 14.8909 75.5039 14.7074 75.5432 14.5502C75.5694 14.3929 75.6087 14.3143 75.6612 14.3143H80.359Z" fill="black"/>
<path d="M84.5508 8.00471C85.0618 8.00471 85.5926 8.09644 86.1429 8.2799C86.7064 8.45025 87.4402 8.71888 88.3444 9.0858C89.4714 9.54444 90.4476 9.89825 91.2732 10.1472C92.1118 10.3962 92.9832 10.5207 93.8874 10.5207L93.2977 13.6264C92.4067 13.7181 91.5746 13.9277 90.8014 14.2554C90.0414 14.583 89.1831 15.0154 88.2265 15.5527C87.7547 15.8147 87.414 15.9982 87.2044 16.103C85.3305 17.0989 83.2469 17.5969 80.9537 17.5969H80.364C80.3116 17.5969 80.2723 17.5248 80.2461 17.3807C80.2068 17.2234 80.1871 17.0334 80.1871 16.8106V15.1006C80.1871 14.8909 80.2068 14.7074 80.2461 14.5502C80.2723 14.3929 80.3116 14.3143 80.364 14.3143H80.993C82.5262 14.3143 84.1839 14.0522 85.966 13.5281C86.4247 13.397 87.0078 13.1808 87.7154 12.8794C88.4492 12.5387 89.0455 12.3225 89.5041 12.2308C88.8489 12.1128 88.0496 11.8639 87.1061 11.4838C86.5164 11.2742 86.0381 11.1169 85.6712 11.0121C85.3174 10.9073 84.9963 10.8548 84.708 10.8548C84.3411 10.8548 84.079 10.9597 83.9218 11.1693C83.7776 11.3659 83.6728 11.6739 83.6073 12.0932L81.681 11.759C82.061 9.25615 83.0176 8.00471 84.5508 8.00471ZM86.1626 1.95064L88.3641 3.71969L86.6736 5.76392L84.4722 3.99487L86.1626 1.95064Z" fill="black"/>
<path d="M91.6345 21.2529C93.4035 20.4667 94.6943 19.7394 95.5067 19.0711C96.3192 18.4159 96.9023 17.7214 97.2561 16.9875L96.4306 10.9924L99.0252 10.4617C99.1955 11.9425 99.3135 13.1219 99.379 13.9998C99.4576 14.8778 99.4969 15.6444 99.4969 16.2996C99.4969 17.8328 99.0317 19.1956 98.1014 20.3881C97.171 21.5805 95.5919 22.7009 93.3642 23.7492L91.6345 21.2529ZM97.1775 4.64352L99.379 6.41257L97.6886 8.4568L95.4871 6.68776L97.1775 4.64352Z" fill="black"/>
<path d="M105.682 9.63617C106.442 9.63617 107.091 9.8917 107.628 10.4028C108.178 10.9138 108.597 11.6083 108.886 12.4863C109.174 13.3512 109.318 14.3078 109.318 15.3561C109.318 17.1382 108.833 18.7566 107.864 20.2111C106.894 21.6788 105.302 22.8582 103.087 23.7492L101.377 21.2529C102.57 20.8336 103.631 20.2767 104.561 19.5822C105.505 18.9007 106.213 18.2062 106.684 17.4986C106.16 17.5641 105.636 17.5969 105.112 17.5969C104.535 17.5969 104.103 17.5772 103.815 17.5379C103.526 17.4855 103.284 17.3938 103.087 17.2627C102.891 17.1186 102.681 16.8958 102.458 16.5944C102.235 16.2799 102.085 16.0244 102.006 15.8278C101.941 15.6313 101.908 15.3626 101.908 15.0219C101.908 14.0653 102.045 13.1808 102.321 12.3684C102.596 11.5428 103.015 10.8811 103.579 10.3831C104.142 9.88515 104.843 9.63617 105.682 9.63617ZM104.011 14.7664C104.627 14.8581 105.158 14.904 105.603 14.904C106.245 14.904 106.763 14.8647 107.156 14.7861C107.156 13.9736 107.005 13.3643 106.704 12.958C106.403 12.5387 106.003 12.3291 105.505 12.3291C105.059 12.3291 104.699 12.5453 104.424 12.9777C104.149 13.397 104.011 13.9933 104.011 14.7664Z" fill="black"/>
<path d="M109.278 21.2529C110.615 20.5453 111.637 19.8442 112.345 19.1497C113.052 18.4552 113.583 17.7345 113.937 16.9875L113.111 10.9924L115.706 10.4617C115.876 11.9425 115.994 13.1219 116.06 13.9998C116.138 14.8778 116.178 15.6444 116.178 16.2996C116.178 17.7934 115.772 19.1432 114.959 20.3487C114.147 21.5543 112.83 22.6878 111.008 23.7492L109.278 21.2529Z" fill="black"/>
</svg>
