<svg width="48" height="48" viewBox="0 0 48 48" fill="none" xmlns="http://www.w3.org/2000/svg">
<path d="M38.9408 29.2901C38.9539 29.2256 39.0461 29.2256 39.0593 29.2901C39.7438 32.6391 42.361 35.2562 45.71 35.9408C45.7745 35.9539 45.7745 36.0461 45.71 36.0593C42.361 36.7438 39.7438 39.361 39.0593 42.71C39.0461 42.7745 38.9539 42.7745 38.9408 42.71C38.2562 39.361 35.6391 36.7438 32.2901 36.0593C32.2256 36.0461 32.2256 35.9539 32.2901 35.9408C35.6391 35.2562 38.2562 32.6391 38.9408 29.2901Z" stroke="#00C2FF" stroke-width="3"/>
<path d="M29.4374 20.7521C29.5626 20.1399 30.4374 20.1399 30.5625 20.7521C30.8389 22.1043 31.8956 23.1611 33.2478 23.4374C33.86 23.5626 33.86 24.4374 33.2478 24.5625C31.8956 24.8389 30.8389 25.8956 30.5625 27.2478C30.4374 27.86 29.5626 27.86 29.4374 27.2478C29.1611 25.8956 28.1043 24.8389 26.7521 24.5625C26.1399 24.4374 26.1399 23.5626 26.7521 23.4374C28.1043 23.1611 29.1611 22.1043 29.4374 20.7521Z" fill="#00C2FF"/>
<path d="M7 17.8H5.5V17.8L7 17.8ZM13.7052 40.7649L14.1796 42.188L14.1796 42.188L13.7052 40.7649ZM23.1244 41.5685L22.4061 40.2517H22.4061L23.1244 41.5685ZM26.7183 41.3168C27.4456 40.9202 27.7135 40.009 27.3168 39.2817C26.9201 38.5545 26.009 38.2865 25.2817 38.6832L26.7183 41.3168ZM39.5 23C39.5 23.8284 40.1716 24.5 41 24.5C41.8284 24.5 42.5 23.8284 42.5 23H39.5ZM18.0127 41.3418L17.1806 42.5898H17.1806L18.0127 41.3418ZM7.00001 37.4601H5.50001L5.50002 37.4637L7.00001 37.4601ZM12.2556 41.2481L12.7265 42.6723L12.73 42.6711L12.2556 41.2481ZM11.3681 5.87195L10.6871 4.53544L11.3681 5.87195ZM7.87195 9.36808L9.20846 10.0491L7.87195 9.36808ZM36.6319 5.87195L37.3129 4.53544V4.53544L36.6319 5.87195ZM40.1281 9.36808L41.4646 8.68709V8.68709L40.1281 9.36808ZM17 13.5C16.1716 13.5 15.5 14.1716 15.5 15C15.5 15.8284 16.1716 16.5 17 16.5V13.5ZM31 16.5C31.8284 16.5 32.5 15.8284 32.5 15C32.5 14.1716 31.8284 13.5 31 13.5V16.5ZM17 22.5C16.1716 22.5 15.5 23.1716 15.5 24C15.5 24.8284 16.1716 25.5 17 25.5V22.5ZM20.5 25.5C21.3284 25.5 22 24.8284 22 24C22 23.1716 21.3284 22.5 20.5 22.5V25.5ZM28.2 3.5H19.8V6.5H28.2V3.5ZM23.8427 42.8854L26.7183 41.3168L25.2817 38.6832L22.4061 40.2517L23.8427 42.8854ZM42.5 23V17.8H39.5V23H42.5ZM14.1796 42.188C15.1883 41.8517 16.2959 42 17.1806 42.5898L18.8447 40.0937C17.1897 38.9903 15.1179 38.7129 13.2309 39.3419L14.1796 42.188ZM5.50002 37.4637C5.50917 41.2065 9.17291 43.8472 12.7265 42.6723L11.7848 39.8239C10.1695 40.358 8.50417 39.1577 8.50001 37.4564L5.50002 37.4637ZM19.8 3.5C17.5845 3.5 15.8327 3.49883 14.4235 3.61398C12.9967 3.73055 11.7894 3.97376 10.6871 4.53544L12.0491 7.20846C12.658 6.89818 13.4265 6.70543 14.6678 6.60401C15.9265 6.50117 17.535 6.5 19.8 6.5V3.5ZM8.5 17.8C8.5 15.535 8.50117 13.9265 8.60401 12.6678C8.70543 11.4265 8.89818 10.658 9.20846 10.0491L6.53544 8.68709C5.97376 9.78944 5.73055 10.9967 5.61398 12.4235C5.49883 13.8327 5.5 15.5845 5.5 17.8H8.5ZM10.6871 4.53544C8.89955 5.44624 7.44624 6.89955 6.53544 8.68709L9.20846 10.0491C9.83163 8.82601 10.826 7.83163 12.0491 7.20846L10.6871 4.53544ZM17.1806 42.5898C19.1738 43.9187 21.7396 44.0325 23.8427 42.8854L22.4061 40.2517C21.2819 40.8649 19.9103 40.8041 18.8447 40.0937L17.1806 42.5898ZM28.2 6.5C30.465 6.5 32.0735 6.50117 33.3322 6.60401C34.5735 6.70543 35.342 6.89818 35.9509 7.20846L37.3129 4.53544C36.2106 3.97376 35.0033 3.73055 33.5765 3.61398C32.1673 3.49883 30.4155 3.5 28.2 3.5V6.5ZM42.5 17.8C42.5 15.5845 42.5012 13.8327 42.386 12.4235C42.2695 10.9967 42.0262 9.78944 41.4646 8.68709L38.7915 10.0491C39.1018 10.658 39.2946 11.4265 39.396 12.6678C39.4988 13.9265 39.5 15.535 39.5 17.8H42.5ZM35.9509 7.20846C37.174 7.83163 38.1684 8.82601 38.7915 10.0491L41.4646 8.68709C40.5538 6.89955 39.1004 5.44624 37.3129 4.53544L35.9509 7.20846ZM17 16.5H31V13.5H17V16.5ZM17 25.5H20.5V22.5H17V25.5ZM5.5 17.8L5.50001 37.4601H8.50001L8.5 17.8L5.5 17.8ZM12.73 42.6711L14.1796 42.188L13.2309 39.3419L11.7813 39.8251L12.73 42.6711Z" fill="#202124"/>
</svg>
