<svg width="50" height="48" viewBox="0 0 50 48" fill="none" xmlns="http://www.w3.org/2000/svg">
<path d="M3.43744 0.752147C3.56258 0.139909 4.43735 0.139909 4.56249 0.752148C4.83887 2.10434 5.89559 3.16106 7.24778 3.43744C7.86002 3.56258 7.86002 4.43735 7.24778 4.56249C5.89559 4.83887 4.83887 5.89559 4.56249 7.24778C4.43735 7.86002 3.56258 7.86002 3.43744 7.24778C3.16106 5.89559 2.10434 4.83887 0.752147 4.56249C0.139909 4.43735 0.139909 3.56258 0.752148 3.43744C2.10434 3.16106 3.16106 2.10434 3.43744 0.752147Z" fill="#00C2FF"/>
<path d="M10.9408 7.29009C10.9539 7.22557 11.0461 7.22557 11.0593 7.29009C11.7438 10.6391 14.361 13.2562 17.71 13.9408C17.7745 13.9539 17.7745 14.0461 17.71 14.0593C14.361 14.7438 11.7438 17.361 11.0593 20.71C11.0461 20.7745 10.9539 20.7745 10.9408 20.71C10.2562 17.361 7.63906 14.7438 4.29009 14.0593C4.22557 14.0461 4.22557 13.9539 4.29009 13.9408C7.63906 13.2562 10.2562 10.6391 10.9408 7.29009Z" stroke="#00C2FF" stroke-width="3"/>
<path d="M21.1639 3.04643C20.3565 3.23206 19.8525 4.03705 20.0381 4.84441C20.2238 5.65177 21.0288 6.15577 21.8361 5.97014L21.1639 3.04643ZM8 32.7283L9.34922 32.0728L8 32.7283ZM7.5 24C7.5 23.1716 6.82843 22.5 6 22.5C5.17157 22.5 4.5 23.1716 4.5 24H7.5ZM27.5 45.5001C28.3284 45.5001 29 44.8285 29 44.0001C29 43.1716 28.3284 42.5001 27.5 42.5001V45.5001ZM24 36.0001L25.3416 36.6709L24 36.0001ZM32.5 28.5001L31.0333 28.1858V28.1858L32.5 28.5001ZM32.5 19L33.8787 19.5909L32.5 19ZM43.9393 18.5607C44.5251 19.1464 45.4749 19.1464 46.0607 18.5607C46.6464 17.9749 46.6464 17.0251 46.0607 16.4393L43.9393 18.5607ZM21 3C20.1716 3 19.5 3.67157 19.5 4.5C19.5 5.32843 20.1716 6 21 6V3ZM26.5 17.5L25.1584 16.8292L26.5 17.5ZM19 24.5L20.4667 24.8143V24.8143L19 24.5ZM7.62129 31.9091C7.29495 32.6705 7.64766 33.5524 8.4091 33.8787C9.17054 34.2051 10.0524 33.8523 10.3787 33.0909L7.62129 31.9091ZM44.5 24C44.5 34.2173 36.2173 42.5 26 42.5V45.5C37.8741 45.5 47.5 35.8741 47.5 24H44.5ZM26 5.5C36.2173 5.5 44.5 13.7827 44.5 24H47.5C47.5 12.1259 37.8741 2.5 26 2.5V5.5ZM21.8361 5.97014C23.173 5.66274 24.5666 5.5 26 5.5V2.5C24.3388 2.5 22.7197 2.68869 21.1639 3.04643L21.8361 5.97014ZM26 42.5C18.6796 42.5 12.3493 38.2483 9.34922 32.0728L6.65078 33.3837C10.1336 40.5529 17.4876 45.5 26 45.5V42.5ZM9.34922 32.0728C8.16497 29.6351 7.5 26.8973 7.5 24H4.5C4.5 27.3613 5.2724 30.5464 6.65078 33.3837L9.34922 32.0728ZM27.5 42.5001C26.5837 42.5001 26.0718 42.2289 25.7534 41.9237C25.4059 41.5906 25.1447 41.0755 25.0023 40.3823C24.8606 39.6927 24.8574 38.9198 24.9472 38.2072C25.039 37.478 25.2131 36.9281 25.3416 36.6709L22.6583 35.3293C22.3309 35.9843 22.0893 36.8904 21.9707 37.8322C21.85 38.7906 21.8413 39.9037 22.0636 40.986C22.2852 42.0648 22.7575 43.2077 23.6775 44.0895C24.6267 44.9993 25.9163 45.5001 27.5 45.5001V42.5001ZM25.3416 36.6709C25.9741 35.406 26.8112 35.4214 28.8636 34.8133C29.8092 34.5331 30.9176 34.0972 31.8868 33.1174C32.8553 32.1383 33.551 30.7543 33.9667 28.8144L31.0333 28.1858C30.699 29.7459 30.2072 30.5494 29.7539 31.0077C29.3011 31.4654 28.7533 31.717 28.0114 31.9369C26.6888 32.3288 24.0259 32.5942 22.6583 35.3293L25.3416 36.6709ZM33.9667 28.8144C34.4523 26.5483 33.9921 24.7319 33.7156 23.3386C33.4396 21.9478 33.3148 20.9068 33.8787 19.5909L31.1213 18.4091C30.1852 20.5933 30.4695 22.393 30.773 23.9226C31.0761 25.4498 31.3659 26.6335 31.0333 28.1858L33.9667 28.8144ZM33.8787 19.5909C34.7725 17.5055 36.7101 16.8417 39.0314 16.9909C40.1778 17.0646 41.3154 17.3419 42.2467 17.686C43.2344 18.051 43.7981 18.4194 43.9393 18.5607L46.0607 16.4393C45.4519 15.8306 44.3915 15.2803 43.2866 14.872C42.1251 14.4428 40.7015 14.0921 39.2238 13.9971C36.2969 13.809 32.7345 14.6452 31.1213 18.4091L33.8787 19.5909ZM21 6C21.6168 6 22.2488 6.32531 22.9046 7.18467C23.5679 8.05398 24.1194 9.31027 24.5249 10.7282C24.9257 12.1301 25.1557 13.5912 25.2316 14.7935C25.2695 15.3948 25.2672 15.9062 25.2356 16.2965C25.2 16.7357 25.1381 16.8697 25.1584 16.8292L27.8417 18.1708C28.09 17.6742 28.1835 17.06 28.2258 16.5388C28.272 15.9687 28.2699 15.3077 28.2256 14.6047C28.1369 13.1986 27.8725 11.5236 27.4093 9.90355C26.9507 8.29955 26.2687 6.6479 25.2895 5.36475C24.3027 4.07165 22.8832 3 21 3V6ZM25.1584 16.8292C24.8175 17.5109 24.457 17.7641 24.0949 17.9223C23.8788 18.0167 23.6282 18.0899 23.3014 18.1665C23.0324 18.2295 22.5539 18.3271 22.1839 18.4236C21.3271 18.6471 20.3104 19.0302 19.4188 20.0009C18.554 20.9423 17.9393 22.291 17.5333 24.1857L20.4667 24.8143C20.8107 23.209 21.2585 22.4327 21.6281 22.0304C21.9708 21.6573 22.3604 21.4779 22.9412 21.3264C23.2899 21.2355 23.5379 21.1924 23.9858 21.0874C24.3758 20.996 24.8322 20.8739 25.2958 20.6715C26.293 20.2359 27.1826 19.4891 27.8417 18.1708L25.1584 16.8292ZM17.5333 24.1857C17.4339 24.6496 17.1083 25.1304 16.393 25.6765C15.6681 26.2299 14.7133 26.7237 13.5946 27.273C12.5308 27.7953 11.3007 28.3757 10.2607 29.0541C9.22367 29.7306 8.16904 30.6311 7.62129 31.9091L10.3787 33.0909C10.581 32.619 11.0491 32.1217 11.8998 31.5667C12.7476 31.0137 13.7703 30.5288 14.9168 29.9659C16.0083 29.43 17.2211 28.8186 18.2135 28.061C19.2155 27.296 20.157 26.2597 20.4667 24.8143L17.5333 24.1857Z" fill="#202124"/>
</svg>
