<svg width="48" height="48" viewBox="0 0 48 48" fill="none" xmlns="http://www.w3.org/2000/svg">
<path d="M7.06256 7.58707C7.27112 6.56668 8.72908 6.56668 8.93764 7.58708C9.39827 9.84073 11.1595 11.6019 13.4131 12.0626C14.4335 12.2711 14.4335 13.7291 13.4131 13.9376C11.1595 14.3983 9.39827 16.1595 8.93764 18.4131C8.72908 19.4335 7.27112 19.4335 7.06256 18.4131C6.60193 16.1595 4.84073 14.3983 2.58708 13.9376C1.56668 13.7291 1.56668 12.2711 2.58707 12.0626C4.84073 11.6019 6.60193 9.84073 7.06256 7.58707Z" fill="#00C2FF"/>
<path d="M21.0002 44.5072C18.0705 43.868 15.1175 42.5988 12.3833 40.6843C4.84303 35.4046 1.34598 26.8828 3.32312 19.9999M35.6429 18.9999C40.7747 25.2605 41.0003 31.9999 39.0003 34.9999C35.0003 40.9999 27.0003 36.9999 27.0003 36.9999M16.0003 10.2342C20.2459 9.85515 24.9484 10.9252 29.2408 13.4999M17.5878 32.8154C16.6114 32.845 15.812 32.0456 15.8416 31.0692C15.9201 28.4787 16.9842 26.0159 18.8168 24.1833L34.1718 8.82831C35.7339 7.26621 38.2666 7.26621 39.8287 8.82831C41.3908 10.3904 41.3908 12.9231 39.8287 14.4852L24.4736 29.8402C22.6411 31.6728 20.1782 32.7369 17.5878 32.8154Z" stroke="#202124" stroke-width="3" stroke-linecap="round"/>
</svg>
