<svg width="48" height="48" viewBox="0 0 48 48" fill="none" xmlns="http://www.w3.org/2000/svg">
<path d="M14.3438 14.211C14.4898 13.4967 15.5104 13.4967 15.6564 14.211C15.9788 15.7886 17.2117 17.0214 18.7892 17.3438C19.5035 17.4898 19.5035 18.5104 18.7892 18.6564C17.2117 18.9788 15.9788 20.2117 15.6564 21.7892C15.5104 22.5035 14.4898 22.5035 14.3438 21.7892C14.0214 20.2117 12.7886 18.9788 11.211 18.6564C10.4967 18.5104 10.4967 17.4898 11.211 17.3438C12.7886 17.0214 14.0214 15.7886 14.3438 14.211Z" fill="#00C2FF"/>
<path d="M27.8494 8.21105L26.4274 7.73365L26.4274 7.73366L27.8494 8.21105ZM23.5503 21.017L22.1283 20.5396V20.5396L23.5503 21.017ZM22.9024 23.9714L24.3538 23.5928V23.5927L22.9024 23.9714ZM27.3994 26.5235C28.2118 26.361 28.7386 25.5708 28.5761 24.7585C28.4137 23.9461 27.6234 23.4193 26.8111 23.5818L27.3994 26.5235ZM24.0927 25.3226L23.534 26.7147H23.534L24.0927 25.3226ZM33.4677 4.00101L33.4953 5.50076L33.4677 4.00101ZM27.926 7.98622L26.513 7.48278L26.513 7.48281L27.926 7.98622ZM9.46009 42.9101L10.1411 41.5736H10.1411L9.46009 42.9101ZM5.08993 38.5399L3.75342 39.2209L3.75343 39.2209L5.08993 38.5399ZM42.9101 38.5399L41.5736 37.8589L42.9101 38.5399ZM38.5399 42.9101L37.8589 41.5736L38.5399 42.9101ZM43.9973 13.7685L42.4977 13.8032V13.8032L43.9973 13.7685ZM34.2315 4.00268L34.1968 5.50228L34.2315 4.00268ZM4.54183 10.753L5.96055 11.2401H5.96055L4.54183 10.753ZM18.2105 5.5C19.039 5.5 19.7105 4.82843 19.7105 4C19.7105 3.17157 19.039 2.5 18.2105 2.5V5.5ZM10.753 4.54183L11.2401 5.96055V5.96055L10.753 4.54183ZM33.5 17C33.5 16.1716 32.8284 15.5 32 15.5C31.1716 15.5 30.5 16.1716 30.5 17H33.5ZM30.5 19C30.5 19.8284 31.1716 20.5 32 20.5C32.8284 20.5 33.5 19.8284 33.5 19H30.5ZM15.1523 28.0397C14.622 27.4033 13.6761 27.3173 13.0397 27.8477C12.4033 28.378 12.3173 29.3239 12.8477 29.9603L15.1523 28.0397ZM35.1523 29.9603C35.6827 29.3239 35.5967 28.378 34.9603 27.8477C34.3239 27.3173 33.378 27.4033 32.8477 28.0397L35.1523 29.9603ZM42.5 14.2948V28H45.5V14.2948H42.5ZM28 42.5H20V45.5H28V42.5ZM5.5 28V18.2105H2.5V28H5.5ZM26.4274 7.73366L22.1283 20.5396L24.9723 21.4943L29.2715 8.68844L26.4274 7.73366ZM22.1283 20.5396C21.8709 21.3064 21.646 21.9721 21.5131 22.517C21.3821 23.054 21.2798 23.6938 21.451 24.35L24.3538 23.5927C24.3746 23.6724 24.3302 23.6276 24.4277 23.2279C24.5233 22.836 24.6976 22.3128 24.9723 21.4943L22.1283 20.5396ZM26.8111 23.5818C25.9645 23.7511 25.4235 23.858 25.0227 23.9034C24.6138 23.9497 24.575 23.8999 24.6514 23.9306L23.534 26.7147C24.1633 26.9673 24.811 26.9465 25.3602 26.8843C25.9175 26.8212 26.6062 26.6821 27.3994 26.5235L26.8111 23.5818ZM21.451 24.35C21.7311 25.4239 22.504 26.3013 23.534 26.7147L24.6514 23.9306C24.5043 23.8715 24.3939 23.7462 24.3538 23.5928L21.451 24.35ZM33.7052 2.5C33.5896 2.5 33.5124 2.49994 33.4401 2.50127L33.4953 5.50076C33.5333 5.50006 33.5776 5.5 33.7052 5.5V2.5ZM29.2715 8.68845C29.3121 8.56748 29.3262 8.52548 29.339 8.48963L26.513 7.48281C26.4887 7.55086 26.4642 7.62412 26.4274 7.73365L29.2715 8.68845ZM33.4401 2.50127C30.3195 2.55863 27.5606 4.54266 26.513 7.48278L29.339 8.48967C29.9675 6.7256 31.6229 5.53518 33.4953 5.50076L33.4401 2.50127ZM20 42.5C17.175 42.5 15.1464 42.4988 13.5542 42.3687C11.9794 42.2401 10.9639 41.9928 10.1411 41.5736L8.77911 44.2466C10.0954 44.9172 11.5496 45.215 13.3099 45.3588C15.0526 45.5012 17.2245 45.5 20 45.5V42.5ZM2.5 28C2.5 30.7755 2.49883 32.9474 2.64122 34.6901C2.78504 36.4504 3.08276 37.9046 3.75342 39.2209L6.42644 37.8589C6.00718 37.0361 5.75992 36.0206 5.63126 34.4458C5.50117 32.8536 5.5 30.825 5.5 28H2.5ZM10.1411 41.5736C8.5417 40.7586 7.24137 39.4583 6.42644 37.8589L3.75343 39.2209C4.85597 41.3848 6.61524 43.144 8.77911 44.2466L10.1411 41.5736ZM42.5 28C42.5 30.825 42.4988 32.8536 42.3687 34.4458C42.2401 36.0206 41.9928 37.0361 41.5736 37.8589L44.2466 39.2209C44.9172 37.9046 45.215 36.4504 45.3588 34.6901C45.5012 32.9474 45.5 30.7755 45.5 28H42.5ZM28 45.5C30.7755 45.5 32.9474 45.5012 34.6901 45.3588C36.4504 45.215 37.9046 44.9172 39.2209 44.2466L37.8589 41.5736C37.0361 41.9928 36.0206 42.2401 34.4458 42.3687C32.8536 42.4988 30.825 42.5 28 42.5V45.5ZM41.5736 37.8589C40.7586 39.4583 39.4583 40.7586 37.8589 41.5736L39.2209 44.2466C41.3848 43.144 43.144 41.3848 44.2466 39.2209L41.5736 37.8589ZM45.5 14.2948C45.5 14.0295 45.5001 13.8712 45.4969 13.7337L42.4977 13.8032C42.4999 13.8972 42.5 14.0127 42.5 14.2948H45.5ZM33.7052 5.5C33.9873 5.5 34.1028 5.5001 34.1968 5.50228L34.2663 2.50308C34.1288 2.4999 33.9705 2.5 33.7052 2.5V5.5ZM45.4969 13.7337C45.3547 7.59111 40.4089 2.64535 34.2663 2.50308L34.1968 5.50228C38.737 5.60743 42.3926 9.26299 42.4977 13.8032L45.4969 13.7337ZM5.5 18.2105C5.5 14.1678 5.52049 12.5219 5.96055 11.2401L3.1231 10.266C2.47951 12.1407 2.5 14.4143 2.5 18.2105H5.5ZM18.2105 2.5C14.4143 2.5 12.1407 2.47951 10.266 3.1231L11.2401 5.96055C12.5219 5.52049 14.1678 5.5 18.2105 5.5V2.5ZM5.96055 11.2401C6.81191 8.76013 8.76013 6.81191 11.2401 5.96055L10.266 3.1231C6.91077 4.27494 4.27494 6.91077 3.1231 10.266L5.96055 11.2401ZM30.5 17V19H33.5V17H30.5ZM12.8477 29.9603C18.6515 36.9249 29.3485 36.9249 35.1523 29.9603L32.8477 28.0397C28.2432 33.5651 19.7568 33.5651 15.1523 28.0397L12.8477 29.9603Z" fill="#202124"/>
</svg>
