<svg width="48" height="48" viewBox="0 0 48 48" fill="none" xmlns="http://www.w3.org/2000/svg">
<path d="M28.9153 18.4143C28.9341 18.3222 29.0658 18.3222 29.0847 18.4143C30.0625 23.1986 33.8014 26.9374 38.5856 27.9153C38.6778 27.9341 38.6778 28.0658 38.5856 28.0847C33.8014 29.0625 30.0625 32.8014 29.0847 37.5856C29.0658 37.6778 28.9341 37.6778 28.9153 37.5856C27.9374 32.8014 24.1986 29.0625 19.4143 28.0847C19.3222 28.0658 19.3222 27.9341 19.4143 27.9153C24.1986 26.9374 27.9374 23.1986 28.9153 18.4143Z" stroke="#00C2FF" stroke-width="3"/>
<path d="M38.4879 8.30627C38.7392 7.2371 40.261 7.2371 40.5123 8.30627L40.5366 8.40978C41.092 10.7723 42.9997 12.578 45.3892 13.0027C46.5034 13.2007 46.5034 14.7991 45.3892 14.9972C42.9997 15.4218 41.092 17.2275 40.5366 19.59L40.5123 19.6936C40.261 20.7627 38.7392 20.7627 38.4879 19.6936L38.4636 19.59C37.9082 17.2275 36.0005 15.4218 33.611 14.9972C32.4968 14.7991 32.4968 13.2007 33.611 13.0027C36.0005 12.578 37.9082 10.7723 38.4636 8.40978L38.4879 8.30627Z" fill="#00C2FF"/>
<path d="M12 9V39M8 9H16M8 39H16" stroke="#202124" stroke-width="3" stroke-linecap="round"/>
</svg>
