<svg width="48" height="48" viewBox="0 0 48 48" fill="none" xmlns="http://www.w3.org/2000/svg">
<path d="M36.0626 4.58708C36.2711 3.56668 37.7291 3.56668 37.9376 4.58707C38.3983 6.84073 40.1595 8.60193 42.4131 9.06256C43.4335 9.27112 43.4335 10.7291 42.4131 10.9376C40.1595 11.3983 38.3983 13.1595 37.9376 15.4131C37.7291 16.4335 36.2711 16.4335 36.0626 15.4131C35.6019 13.1595 33.8407 11.3983 31.5871 10.9376C30.5667 10.7291 30.5667 9.27112 31.5871 9.06256C33.8407 8.60193 35.6019 6.84073 36.0626 4.58708Z" fill="#00C2FF"/>
<path d="M8.90342 35.9765C8.33817 36.5821 8.3709 37.5313 8.97652 38.0966C9.58215 38.6618 10.5313 38.6291 11.0966 38.0235L8.90342 35.9765ZM36.9034 38.0235C37.4687 38.6291 38.4179 38.6618 39.0235 38.0966C39.6291 37.5313 39.6618 36.5821 39.0966 35.9765L36.9034 38.0235ZM28.6261 6.08274C29.4284 6.28924 30.2462 5.80625 30.4527 5.00398C30.6591 4.2017 30.1762 3.38392 29.3739 3.17743L28.6261 6.08274ZM43.7104 15.3994C43.3787 14.6403 42.4944 14.2938 41.7353 14.6255C40.9761 14.9571 40.6296 15.8414 40.9613 16.6006L43.7104 15.3994ZM11.0966 38.0235C18.0744 30.5472 29.9256 30.5472 36.9034 38.0235L39.0966 35.9765C30.9327 27.2295 17.0673 27.2295 8.90342 35.9765L11.0966 38.0235ZM24 23C22.3431 23 21 21.6569 21 20H18C18 23.3137 20.6863 26 24 26V23ZM27 20C27 21.6569 25.6569 23 24 23V26C27.3137 26 30 23.3137 30 20H27ZM24 17C25.6569 17 27 18.3431 27 20H30C30 16.6863 27.3137 14 24 14V17ZM24 14C20.6863 14 18 16.6863 18 20H21C21 18.3431 22.3431 17 24 17V14ZM42.5 24C42.5 34.2173 34.2173 42.5 24 42.5V45.5C35.8741 45.5 45.5 35.8741 45.5 24H42.5ZM24 42.5C13.7827 42.5 5.5 34.2173 5.5 24H2.5C2.5 35.8741 12.1259 45.5 24 45.5V42.5ZM5.5 24C5.5 13.7827 13.7827 5.5 24 5.5V2.5C12.1259 2.5 2.5 12.1259 2.5 24H5.5ZM24 5.5C25.5993 5.5 27.1491 5.70259 28.6261 6.08274L29.3739 3.17743C27.6547 2.73494 25.8537 2.5 24 2.5V5.5ZM40.9613 16.6006C41.9505 18.8646 42.5 21.3661 42.5 24H45.5C45.5 20.945 44.8619 18.0351 43.7104 15.3994L40.9613 16.6006Z" fill="#202124"/>
</svg>
