<svg width="48" height="48" viewBox="0 0 48 48" fill="none" xmlns="http://www.w3.org/2000/svg">
<path d="M38.9408 29.2901C38.9539 29.2256 39.0461 29.2256 39.0593 29.2901C39.7438 32.6391 42.361 35.2562 45.71 35.9408C45.7745 35.9539 45.7745 36.0461 45.71 36.0593C42.361 36.7438 39.7438 39.361 39.0593 42.71C39.0461 42.7745 38.9539 42.7745 38.9408 42.71C38.2562 39.361 35.6391 36.7438 32.2901 36.0593C32.2256 36.0461 32.2256 35.9539 32.2901 35.9408C35.6391 35.2562 38.2562 32.6391 38.9408 29.2901Z" stroke="#00C2FF" stroke-width="3"/>
<path d="M31.4374 20.7521C31.5626 20.1399 32.4374 20.1399 32.5625 20.7521C32.8389 22.1043 33.8956 23.1611 35.2478 23.4374C35.86 23.5626 35.86 24.4374 35.2478 24.5625C33.8956 24.8389 32.8389 25.8956 32.5625 27.2478C32.4374 27.86 31.5626 27.86 31.4374 27.2478C31.1611 25.8956 30.1043 24.8389 28.7521 24.5625C28.1399 24.4374 28.1399 23.5626 28.7521 23.4374C30.1043 23.1611 31.1611 22.1043 31.4374 20.7521Z" fill="#00C2FF"/>
<path d="M23.3271 6.15678L22.6985 4.79484L23.3271 6.15678ZM25.318 5.23787L25.9466 6.59981V6.59981L25.318 5.23787ZM30.682 5.23787L31.3106 3.87593L31.3106 3.87593L30.682 5.23787ZM32.6729 6.15677L32.0443 7.51871L32.6729 6.15677ZM25.5 45.5C26.3284 45.5 27 44.8285 27 44C27 43.1716 26.3284 42.5 25.5 42.5V45.5ZM41.5 24C41.5 24.8285 42.1716 25.5 43 25.5C43.8284 25.5 44.5 24.8285 44.5 24H41.5ZM27.3116 4.4652L27.5697 5.94282L27.5697 5.94282L27.3116 4.4652ZM28.6884 4.4652L28.4303 5.94282L28.6884 4.4652ZM33.3655 6.45777L32.8646 7.87169L32.8646 7.87169L33.3655 6.45777ZM36.3976 6.33031L36.8968 7.7448L36.8968 7.7448L36.3976 6.33031ZM35.6801 6.56561L36.0472 8.01997L36.0472 8.01997L35.6801 6.56561ZM38.5546 5.6785L38.3876 4.18782V4.18782L38.5546 5.6785ZM42.8967 8.75061L41.4355 9.08924V9.08924L42.8967 8.75061ZM19.6024 6.33031L20.1017 4.91582L20.1017 4.91582L19.6024 6.33031ZM20.3199 6.56561L19.9528 8.01997L19.9528 8.01997L20.3199 6.56561ZM22.6345 6.45777L22.1337 5.04384L22.1337 5.04384L22.6345 6.45777ZM13.1033 8.75061L14.5645 9.08924V9.08924L13.1033 8.75061ZM17.4454 5.6785L17.2784 7.16917L17.4454 5.6785ZM21 13.5C20.1716 13.5 19.5 14.1716 19.5 15C19.5 15.8285 20.1716 16.5 21 16.5V13.5ZM35 16.5C35.8284 16.5 36.5 15.8285 36.5 15C36.5 14.1716 35.8284 13.5 35 13.5V16.5ZM21 22.5C20.1716 22.5 19.5 23.1716 19.5 24C19.5 24.8285 20.1716 25.5 21 25.5V22.5ZM24.5 25.5C25.3284 25.5 26 24.8285 26 24C26 23.1716 25.3284 22.5 24.5 22.5V25.5ZM5.85891 24.7154L6.63065 23.4291L5.85891 24.7154ZM10.3183 25.0727L9.76125 23.68L10.3183 25.0727ZM14.5 24V11.0016H11.5V24H14.5ZM23.9556 7.51871L25.9466 6.59981L24.6894 3.87593L22.6985 4.79484L23.9556 7.51871ZM30.0534 6.59981L32.0443 7.51871L33.3015 4.79484L31.3106 3.87593L30.0534 6.59981ZM25.5 42.5H8V45.5H25.5V42.5ZM41.5 11.0016V24H44.5V11.0016H41.5ZM25.9466 6.59981C27.0056 6.11107 27.2936 5.99107 27.5697 5.94282L27.0534 2.98758C26.3016 3.11894 25.6032 3.45419 24.6894 3.87593L25.9466 6.59981ZM31.3106 3.87593C30.3968 3.45419 29.6984 3.11894 28.9466 2.98758L28.4303 5.94282C28.7064 5.99107 28.9945 6.11107 30.0534 6.59981L31.3106 3.87593ZM27.5697 5.94282C27.8544 5.89308 28.1456 5.89308 28.4303 5.94282L28.9466 2.98758C28.3203 2.87816 27.6797 2.87816 27.0534 2.98758L27.5697 5.94282ZM32.0443 7.51871C32.3654 7.66689 32.6109 7.78181 32.8646 7.87169L33.8663 5.04384C33.7729 5.01077 33.6724 4.96601 33.3015 4.79484L32.0443 7.51871ZM35.8983 4.91582C35.5131 5.05177 35.4089 5.087 35.3129 5.11124L36.0472 8.01997C36.3083 7.95407 36.5634 7.86247 36.8968 7.7448L35.8983 4.91582ZM32.8646 7.87169C33.8876 8.23403 34.995 8.28563 36.0472 8.01997L35.3129 5.11124C34.8346 5.23199 34.3313 5.20854 33.8663 5.04384L32.8646 7.87169ZM36.8968 7.7448C38.1217 7.31248 38.4828 7.19593 38.7216 7.16917L38.3876 4.18782C37.7173 4.26293 36.9434 4.54696 35.8983 4.91582L36.8968 7.7448ZM44.5 11.0016C44.5 9.89334 44.5103 9.06908 44.358 8.41197L41.4355 9.08924C41.4897 9.32334 41.5 9.70271 41.5 11.0016H44.5ZM38.7216 7.16917C39.9824 7.02791 41.1491 7.85335 41.4355 9.08924L44.358 8.41198C43.7279 5.69302 41.1613 3.87706 38.3876 4.18782L38.7216 7.16917ZM19.1032 7.7448C19.4367 7.86248 19.6917 7.95407 19.9528 8.01997L20.6871 5.11124C20.5911 5.087 20.4869 5.05177 20.1017 4.91582L19.1032 7.7448ZM22.6985 4.79484C22.3276 4.96601 22.2271 5.01077 22.1337 5.04384L23.1354 7.87169C23.3891 7.78181 23.6346 7.66689 23.9556 7.51871L22.6985 4.79484ZM19.9528 8.01997C21.005 8.28563 22.1124 8.23403 23.1354 7.87169L22.1337 5.04384C21.6687 5.20854 21.1654 5.23199 20.6871 5.11124L19.9528 8.01997ZM14.5 11.0016C14.5 9.70271 14.5103 9.32334 14.5645 9.08924L11.642 8.41198C11.4897 9.06909 11.5 9.89333 11.5 11.0016H14.5ZM20.1017 4.91582C19.0566 4.54696 18.2827 4.26293 17.6124 4.18782L17.2784 7.16917C17.5172 7.19593 17.8783 7.31249 19.1032 7.7448L20.1017 4.91582ZM14.5645 9.08924C14.8509 7.85335 16.0176 7.02791 17.2784 7.16917L17.6124 4.18782C14.8387 3.87706 12.2721 5.69302 11.642 8.41198L14.5645 9.08924ZM21 16.5H35V13.5H21V16.5ZM21 25.5H24.5V22.5H21V25.5ZM11.5 24V39H14.5V24H11.5ZM4.5 39V26.3341H1.5V39H4.5ZM10.8754 26.4654L13.5571 25.3927L12.4429 22.6073L9.76125 23.68L10.8754 26.4654ZM5.08716 26.0016C6.83811 27.0522 8.97953 27.2238 10.8754 26.4654L9.76125 23.68C8.73585 24.0901 7.57766 23.9973 6.63065 23.4291L5.08716 26.0016ZM8 42.5C6.067 42.5 4.5 40.933 4.5 39H1.5C1.5 42.5899 4.41015 45.5 8 45.5V42.5ZM11.5 39C11.5 40.933 9.933 42.5 8 42.5V45.5C11.5899 45.5 14.5 42.5899 14.5 39H11.5ZM4.5 26.3341C4.5 26.0327 4.82875 25.8466 5.08716 26.0016L6.63065 23.4291C4.37267 22.0744 1.5 23.7008 1.5 26.3341H4.5Z" fill="#202124"/>
</svg>
