<svg width="48" height="49" viewBox="0 0 48 49" fill="none" xmlns="http://www.w3.org/2000/svg">
<path d="M18.0626 1.58707C18.2711 0.566677 19.7291 0.566679 19.9376 1.58708C20.3983 3.84073 22.1595 5.60193 24.4131 6.06256C25.4335 6.27112 25.4335 7.72908 24.4131 7.93764C22.1595 8.39827 20.3983 10.1595 19.9376 12.4131C19.7291 13.4335 18.2711 13.4335 18.0626 12.4131C17.6019 10.1595 15.8407 8.39827 13.5871 7.93764C12.5667 7.72908 12.5667 6.27112 13.5871 6.06256C15.8407 5.60193 17.6019 3.84073 18.0626 1.58707Z" fill="#00C2FF"/>
<path d="M17.2464 29.6646L26.9972 43.5901C28.2643 45.3998 30.7585 45.8396 32.5682 44.5724C34.3778 43.3053 34.8176 40.8112 33.5505 39.0015L23.7997 25.076M17.2464 29.6646L14.3786 25.5688C13.1114 23.7592 13.5512 21.265 15.3609 19.9979C17.1705 18.7308 19.6647 19.1706 20.9318 20.9802L23.7997 25.076M17.2464 29.6646L23.7997 25.076M29.173 4.05444C35.0007 5.10636 40.0275 8.67361 42.3852 14.1272C45.109 20.4276 43.5583 27.5983 39 32.8767M8.39517 12.0542C5.18827 16.1694 3.72558 21.2811 4.54936 26.2067" stroke="#202124" stroke-width="3" stroke-linecap="round"/>
</svg>
