<svg width="45" height="45" viewBox="0 0 45 45" fill="none" xmlns="http://www.w3.org/2000/svg">
<path d="M22.5 25.7625C21.0375 25.7625 19.65 25.2 18.5812 24.15C17.2125 22.7813 16.6687 20.8125 17.1187 18.8813C17.5875 16.9125 19.1625 15.3375 21.1312 14.8688C23.0437 14.4 25.0125 14.9438 26.4 16.3313C27.7875 17.7188 28.3125 19.6688 27.8625 21.6001C27.3937 23.5688 25.8187 25.1437 23.85 25.6125C23.4 25.7062 22.95 25.7625 22.5 25.7625ZM22.5 17.5126C22.275 17.5126 22.0312 17.5501 21.8062 17.6063C20.8687 17.8313 20.1 18.6 19.875 19.5375C19.6312 20.5125 19.8937 21.4688 20.5874 22.1438C21.2812 22.8375 22.2187 23.0813 23.2125 22.8563C24.15 22.6313 24.9187 21.8625 25.1437 20.925C25.3875 19.95 25.125 18.9938 24.4312 18.3188C23.9062 17.7938 23.2312 17.5126 22.5 17.5126Z" fill="#292D32"/>
<path d="M11.2873 33.6937C10.9498 33.6937 10.5935 33.5625 10.331 33.3188C6.69353 29.9438 4.6123 25.1812 4.6123 20.2312C4.6123 10.3687 12.6373 2.34375 22.4998 2.34375C32.3623 2.34375 40.3873 10.3687 40.3873 20.2312C40.3873 25.2187 38.381 29.8312 34.7435 33.2625C34.181 33.7875 33.281 33.7688 32.756 33.2063C32.231 32.6438 32.2498 31.7438 32.8123 31.2188C35.8873 28.3313 37.5748 24.45 37.5748 20.25C37.5748 11.9437 30.806 5.17502 22.4998 5.17502C14.1935 5.17502 7.4248 11.9437 7.4248 20.25C7.4248 24.4875 9.13104 28.3875 12.2435 31.275C12.806 31.8 12.8436 32.7 12.3186 33.2625C12.0373 33.5437 11.6623 33.6937 11.2873 33.6937Z" fill="#292D32"/>
<path d="M30.0001 28.6875C29.6626 28.6875 29.3064 28.5563 29.0439 28.3125C28.4814 27.7875 28.4439 26.8875 28.9876 26.325C30.5439 24.675 31.4063 22.5 31.4063 20.25C31.4063 15.3375 27.4126 11.3625 22.5188 11.3625C17.6251 11.3625 13.6313 15.3563 13.6313 20.25C13.6313 22.5188 14.4938 24.675 16.0501 26.325C16.5751 26.8875 16.5563 27.7875 15.9938 28.3125C15.4313 28.8375 14.5313 28.8188 14.0063 28.2563C11.9626 26.0813 10.8188 23.2313 10.8188 20.25C10.8188 13.8 16.0688 8.55005 22.5188 8.55005C28.9688 8.55005 34.2188 13.8 34.2188 20.25C34.2188 23.2313 33.0938 26.0813 31.0313 28.2563C30.7501 28.5376 30.3751 28.6875 30.0001 28.6875Z" fill="#292D32"/>
<path d="M25.2004 42.6563H19.8191C17.6816 42.6563 15.7879 41.4563 14.8691 39.5438C13.9504 37.6313 14.1941 35.4 15.5254 33.7313L18.2254 30.3751C19.2754 29.0626 20.8316 28.3125 22.5191 28.3125C24.2066 28.3125 25.7629 29.0626 26.8129 30.3751L29.5129 33.7313C30.8441 35.4 31.1066 37.6313 30.1691 39.5438C29.2129 41.4563 27.3191 42.6563 25.2004 42.6563ZM20.4004 32.1188L17.7004 35.475C17.0441 36.3 16.9129 37.3688 17.3816 38.3063C17.8316 39.2625 18.7504 39.825 19.8004 39.825H25.1816C26.2316 39.825 27.1504 39.2625 27.6004 38.3063C28.0504 37.35 27.9379 36.3 27.2816 35.475L24.5816 32.1188C23.5691 30.8438 21.4316 30.8438 20.4004 32.1188Z" fill="#292D32"/>
</svg>
