<svg width="45" height="45" viewBox="0 0 45 45" fill="none" xmlns="http://www.w3.org/2000/svg">
<path d="M10.3875 36.6C9.24372 36.6 8.17497 36.2063 7.40622 35.475C6.43122 34.5563 5.96247 33.1688 6.13122 31.6688L6.82497 25.5938C6.95622 24.45 7.64998 22.9313 8.45623 22.1063L23.85 5.81253C27.6937 1.74378 31.7062 1.63128 35.775 5.47503C39.8437 9.31878 39.9562 13.3313 36.1125 17.4L20.7187 33.6938C19.9312 34.5375 18.4687 35.325 17.325 35.5125L11.2875 36.5438C10.9687 36.5625 10.6875 36.6 10.3875 36.6ZM29.8687 5.45628C28.425 5.45628 27.1687 6.35628 25.8937 7.70628L10.5 24.0188C10.125 24.4125 9.69372 25.35 9.61872 25.8938L8.92497 31.9688C8.84997 32.5875 8.99997 33.0938 9.33747 33.4125C9.67497 33.7313 10.1812 33.8438 10.8 33.75L16.8375 32.7188C17.3812 32.625 18.2812 32.1375 18.6562 31.7438L34.05 15.45C36.375 12.975 37.2187 10.6875 33.825 7.50003C32.325 6.05628 31.0312 5.45628 29.8687 5.45628Z" fill="white"/>
<path d="M32.5126 20.5312C32.4751 20.5312 32.4188 20.5312 32.3813 20.5312C26.5313 19.95 21.8251 15.5062 20.9251 9.69371C20.8126 8.92496 21.3376 8.21246 22.1063 8.08121C22.8751 7.96871 23.5876 8.49371 23.7188 9.26246C24.4313 13.8 28.1063 17.2875 32.6813 17.7375C33.4501 17.8125 34.0126 18.5062 33.9376 19.275C33.8438 19.9875 33.2251 20.5312 32.5126 20.5312Z" fill="white"/>
<path d="M39.375 42.6562H5.625C4.85625 42.6562 4.21875 42.0187 4.21875 41.25C4.21875 40.4813 4.85625 39.8438 5.625 39.8438H39.375C40.1437 39.8438 40.7812 40.4813 40.7812 41.25C40.7812 42.0187 40.1437 42.6562 39.375 42.6562Z" fill="white"/>
</svg>
