<svg width="45" height="45" viewBox="0 0 45 45" fill="none" xmlns="http://www.w3.org/2000/svg">
<path d="M22.5 40.5938C21.9187 40.5938 21.3563 40.5188 20.8875 40.35C13.725 37.8938 2.34375 29.175 2.34375 16.2938C2.34375 9.73125 7.65 4.40625 14.175 4.40625C17.3438 4.40625 20.3063 5.64375 22.5 7.85625C24.6937 5.64375 27.6563 4.40625 30.825 4.40625C37.35 4.40625 42.6562 9.75 42.6562 16.2938C42.6562 29.1938 31.275 37.8938 24.1125 40.35C23.6437 40.5188 23.0813 40.5938 22.5 40.5938ZM14.175 7.21875C9.20625 7.21875 5.15625 11.2875 5.15625 16.2938C5.15625 29.1 17.475 36.225 21.8063 37.7063C22.1438 37.8188 22.875 37.8188 23.2125 37.7063C27.525 36.225 39.8625 29.1188 39.8625 16.2938C39.8625 11.2875 35.8125 7.21875 30.8438 7.21875C27.9938 7.21875 25.35 8.55 23.6437 10.8563C23.1187 11.5688 21.9187 11.5688 21.3937 10.8563C19.65 8.53125 17.025 7.21875 14.175 7.21875Z" fill="white"/>
</svg>
