<svg width="40" height="40" viewBox="0 0 40 40" fill="none" xmlns="http://www.w3.org/2000/svg">
<path d="M29.0838 28.8333C26.2838 28.8333 23.7005 27.5166 22.0171 25.1999C21.6171 24.6499 21.7338 23.8666 22.2838 23.45C22.8338 23.0333 23.6172 23.1666 24.0338 23.7166C25.2505 25.3666 27.0838 26.3166 29.0838 26.3166C32.5672 26.3166 35.4172 23.4833 35.4172 19.9833C35.4172 16.4833 32.5838 13.6499 29.0838 13.6499C26.7172 13.6499 24.4838 14.9166 23.2671 16.9332L18.8505 24.2833C17.1838 27.0666 14.1338 28.7833 10.9005 28.7833C6.03384 28.7833 2.06714 24.8166 2.06714 19.9499C2.06714 15.0832 6.03384 11.1166 10.9005 11.1166C13.7005 11.1166 16.2838 12.4332 17.9672 14.7499C18.3672 15.2999 18.2505 16.0833 17.7005 16.5C17.1338 16.9 16.3672 16.7833 15.9505 16.2333C14.7338 14.5833 12.9005 13.6333 10.9005 13.6333C7.41717 13.6333 4.56714 16.4666 4.56714 19.9666C4.56714 23.4666 7.4005 26.3 10.9005 26.3C13.2672 26.3 15.5005 25.0333 16.7172 23.0166L21.1338 15.6666C22.8005 12.8833 25.8505 11.1666 29.0838 11.1666C33.9505 11.1666 37.9172 15.1333 37.9172 19.9999C37.9172 24.8666 33.9505 28.8333 29.0838 28.8333Z" fill="white"/>
</svg>
