<svg width="45" height="45" viewBox="0 0 45 45" fill="none" xmlns="http://www.w3.org/2000/svg">
<path d="M22.4999 25.9688C22.2562 25.9688 22.0124 25.9126 21.8062 25.7813C21.1312 25.3876 20.9062 24.5251 21.2812 23.8688L22.8749 21.0938H21.2999C20.3624 21.0938 19.5937 20.6813 19.1812 19.9876C18.7687 19.2751 18.8062 18.4126 19.2749 17.5876L21.2812 14.1001C21.6749 13.4251 22.5374 13.2001 23.1937 13.5751C23.8687 13.9688 24.0937 14.8313 23.7187 15.4876L22.1249 18.2813H23.6999C24.6374 18.2813 25.4062 18.6938 25.8187 19.3876C26.2312 20.1001 26.1937 20.9626 25.7249 21.7876L23.7187 25.2751C23.4562 25.7251 22.9874 25.9688 22.4999 25.9688Z" fill="white"/>
<path d="M27.6939 37.0313H17.3626C16.5376 37.0313 15.4876 36.9376 14.7938 36.2251C14.1188 35.5313 14.1376 34.6688 14.1563 34.0876V32.4188C9.43135 29.2688 6.31885 23.7938 6.31885 18.5813C6.31885 13.6501 8.53135 9.03756 12.3751 5.94381C16.2188 2.85006 21.2626 1.68756 26.1938 2.77506C30.8813 3.80631 34.9314 6.93756 37.0314 11.1563C41.1001 19.3501 37.1813 28.2188 30.9188 32.4376V33.8438C30.9376 34.3876 30.9564 35.3813 30.1876 36.1688C29.6064 36.7313 28.7814 37.0313 27.6939 37.0313ZM16.9501 34.2001C17.0438 34.2001 17.1751 34.2188 17.3438 34.2188H27.6939C27.8814 34.2188 28.0126 34.2001 28.0876 34.1813C28.0876 34.1251 28.0876 34.0501 28.0876 33.9938V31.6313C28.0876 31.1438 28.3501 30.6751 28.7626 30.4313C34.3126 27.0751 37.9876 19.4063 34.4813 12.3751C32.7563 8.90631 29.4188 6.33756 25.5563 5.49381C21.4688 4.59381 17.2876 5.55006 14.1001 8.11881C10.9126 10.6876 9.09385 14.4938 9.09385 18.5813C9.09385 23.7938 12.6938 28.2938 16.2563 30.4501C16.6876 30.7126 16.9313 31.1626 16.9313 31.6501V34.1813C16.9501 34.1813 16.9501 34.1813 16.9501 34.2001Z" fill="white"/>
<path d="M29.0626 42.6562C28.9314 42.6562 28.8001 42.6374 28.6689 42.5999C24.6189 41.4374 20.3626 41.4374 16.3126 42.5999C15.5626 42.8062 14.7939 42.375 14.5689 41.625C14.3439 40.875 14.7939 40.1062 15.5439 39.8812C20.0814 38.5875 24.9001 38.5875 29.4376 39.8812C30.1876 40.0875 30.6189 40.875 30.4126 41.625C30.2439 42.2625 29.6814 42.6562 29.0626 42.6562Z" fill="white"/>
</svg>
