<svg width="40" height="50" viewBox="0 0 40 50" fill="none" xmlns="http://www.w3.org/2000/svg">
<path d="M20 25C21.375 25 22.5525 24.51 23.5325 23.53C24.5108 22.5517 25 21.375 25 20C25 18.625 24.5108 17.4475 23.5325 16.4675C22.5525 15.4892 21.375 15 20 15C18.625 15 17.4483 15.4892 16.47 16.4675C15.49 17.4475 15 18.625 15 20C15 21.375 15.49 22.5517 16.47 23.53C17.4483 24.51 18.625 25 20 25ZM20 50C13.2917 44.2917 8.28167 38.9892 4.97 34.0925C1.65667 29.1975 0 24.6667 0 20.5C0 14.25 2.01083 9.27083 6.0325 5.5625C10.0525 1.85417 14.7083 0 20 0C25.2917 0 29.9475 1.85417 33.9675 5.5625C37.9892 9.27083 40 14.25 40 20.5C40 24.6667 38.3442 29.1975 35.0325 34.0925C31.7192 38.9892 26.7083 44.2917 20 50Z" fill="#FF1744"/>
</svg>
