<svg width="45" height="45" viewBox="0 0 45 45" fill="none" xmlns="http://www.w3.org/2000/svg">
<path d="M33.7499 13.425C33.6374 13.4063 33.5062 13.4063 33.3937 13.425C30.8062 13.3313 28.7437 11.2125 28.7437 8.5875C28.7437 5.90625 30.8999 3.75 33.5811 3.75C36.2624 3.75 38.4186 5.925 38.4186 8.5875C38.3999 11.2125 36.3374 13.3313 33.7499 13.425Z" stroke="white" stroke-width="3" stroke-linecap="round" stroke-linejoin="round"/>
<path d="M31.8187 27.0751C34.3875 27.5063 37.2187 27.0563 39.2062 25.7251C41.85 23.9626 41.85 21.0751 39.2062 19.3126C37.2 17.9813 34.3312 17.5313 31.7625 17.9813" stroke="white" stroke-width="3" stroke-linecap="round" stroke-linejoin="round"/>
<path d="M11.1937 13.425C11.3062 13.4063 11.4374 13.4063 11.5499 13.425C14.1374 13.3313 16.1999 11.2125 16.1999 8.5875C16.1999 5.90625 14.0437 3.75 11.3624 3.75C8.68116 3.75 6.5249 5.925 6.5249 8.5875C6.54365 11.2125 8.60616 13.3313 11.1937 13.425Z" stroke="white" stroke-width="3" stroke-linecap="round" stroke-linejoin="round"/>
<path d="M13.1249 27.0751C10.5562 27.5063 7.72495 27.0563 5.73745 25.7251C3.0937 23.9626 3.0937 21.0751 5.73745 19.3126C7.7437 17.9813 10.6124 17.5313 13.1812 17.9813" stroke="white" stroke-width="3" stroke-linecap="round" stroke-linejoin="round"/>
<path d="M22.5001 27.4312C22.3876 27.4125 22.2564 27.4125 22.1439 27.4312C19.5564 27.3375 17.4939 25.2187 17.4939 22.5937C17.4939 19.9125 19.6501 17.7562 22.3314 17.7562C25.0126 17.7562 27.1689 19.9312 27.1689 22.5937C27.1501 25.2187 25.0876 27.3562 22.5001 27.4312Z" stroke="white" stroke-width="3" stroke-linecap="round" stroke-linejoin="round"/>
<path d="M17.0438 33.3374C14.4001 35.0999 14.4001 37.9874 17.0438 39.7499C20.0438 41.7562 24.9563 41.7562 27.9563 39.7499C30.6001 37.9874 30.6001 35.0999 27.9563 33.3374C24.9751 31.3499 20.0438 31.3499 17.0438 33.3374Z" stroke="white" stroke-width="3" stroke-linecap="round" stroke-linejoin="round"/>
</svg>
