<svg width="45" height="45" viewBox="0 0 45 45" fill="none" xmlns="http://www.w3.org/2000/svg">
<path d="M16.2562 42.6562H3.75C2.98125 42.6562 2.34375 42.0187 2.34375 41.25V30C2.34375 27.15 4.65 24.8438 7.5 24.8438H16.2562C17.025 24.8438 17.6625 25.4813 17.6625 26.25V41.25C17.6625 42.0187 17.025 42.6562 16.2562 42.6562ZM5.15625 39.8438H14.85V27.6562H7.5C6.20625 27.6562 5.15625 28.7063 5.15625 30V39.8438Z" fill="white"/>
<path d="M28.744 42.6562H16.2378C15.469 42.6562 14.8315 42.0187 14.8315 41.25V22.5C14.8315 19.65 17.1378 17.3438 19.9878 17.3438H24.994C27.844 17.3438 30.1503 19.65 30.1503 22.5V41.25C30.1503 42.0187 29.5315 42.6562 28.744 42.6562ZM17.6628 39.8438H27.3565V22.5C27.3565 21.2063 26.3065 20.1562 25.0128 20.1562H20.0065C18.7128 20.1562 17.6628 21.2063 17.6628 22.5V39.8438Z" fill="white"/>
<path d="M41.2501 42.6562H28.7439C27.9751 42.6562 27.3376 42.0187 27.3376 41.25V31.875C27.3376 31.1063 27.9751 30.4688 28.7439 30.4688H37.5001C40.3501 30.4688 42.6564 32.775 42.6564 35.625V41.25C42.6564 42.0187 42.0189 42.6562 41.2501 42.6562ZM30.1501 39.8438H39.8439V35.625C39.8439 34.3313 38.7939 33.2812 37.5001 33.2812H30.1501V39.8438Z" fill="white"/>
<path d="M25.6874 15.6562C25.2374 15.6562 24.6749 15.5249 24.0374 15.1499L22.4999 14.2312L20.9812 15.1312C19.4437 16.0499 18.4312 15.5062 18.0562 15.2437C17.6812 14.9812 16.8749 14.1562 17.2687 12.4312L17.6249 10.8749L16.3499 9.59992C15.5624 8.81242 15.2812 7.87491 15.5624 7.01241C15.8437 6.14991 16.6124 5.5499 17.6999 5.3624L19.3312 5.08116L20.2499 3.2437C21.2624 1.23745 23.7187 1.23745 24.7124 3.2437L25.6312 5.08116L27.2624 5.3624C28.3499 5.5499 29.1374 6.14991 29.3999 7.01241C29.6812 7.87491 29.3812 8.81242 28.6124 9.59992L27.3374 10.8749L27.6937 12.4312C28.0874 14.1749 27.2812 14.9812 26.9062 15.2625C26.7374 15.4125 26.3062 15.6562 25.6874 15.6562ZM22.4999 11.3999C22.9499 11.3999 23.3999 11.5124 23.7749 11.7374L24.8249 12.3562L24.5999 11.3437C24.4124 10.5562 24.6937 9.59993 25.2749 9.01868L26.2312 8.06241L25.0499 7.85619C24.2999 7.72494 23.5687 7.18118 23.2312 6.50618L22.4999 5.09993L21.7874 6.50618C21.4499 7.18118 20.7187 7.72494 19.9687 7.85619L18.7874 8.0437L19.7437 8.99991C20.3249 9.58116 20.5874 10.5374 20.4187 11.3249L20.1937 12.3374L21.2437 11.7187C21.5999 11.4937 22.0499 11.3999 22.4999 11.3999Z" fill="white"/>
</svg>
