<svg width="45" height="45" viewBox="0 0 45 45" fill="none" xmlns="http://www.w3.org/2000/svg">
<path d="M31.875 39.8438H13.125C12.3563 39.8438 11.7188 39.2062 11.7188 38.4375C11.7188 37.6688 12.3563 37.0312 13.125 37.0312H31.875C37.2375 37.0312 39.8438 34.425 39.8438 29.0625V15.9375C39.8438 10.575 37.2375 7.96875 31.875 7.96875H13.125C7.7625 7.96875 5.15625 10.575 5.15625 15.9375C5.15625 16.7062 4.51875 17.3438 3.75 17.3438C2.98125 17.3438 2.34375 16.7062 2.34375 15.9375C2.34375 9.09375 6.28125 5.15625 13.125 5.15625H31.875C38.7188 5.15625 42.6562 9.09375 42.6562 15.9375V29.0625C42.6562 35.9063 38.7188 39.8438 31.875 39.8438Z" fill="white"/>
<path d="M22.4997 24.1312C20.9247 24.1312 19.331 23.6437 18.1122 22.6499L12.2435 17.9624C11.6435 17.4749 11.531 16.5937 12.0185 15.9937C12.506 15.3937 13.3872 15.2812 13.9872 15.7687L19.8559 20.4562C21.2809 21.5999 23.6997 21.5999 25.1247 20.4562L30.9935 15.7687C31.5935 15.2812 32.4934 15.3749 32.9622 15.9937C33.4497 16.5937 33.3559 17.4937 32.7372 17.9624L26.8684 22.6499C25.6684 23.6437 24.0747 24.1312 22.4997 24.1312Z" fill="white"/>
<path d="M15 32.3438H3.75C2.98125 32.3438 2.34375 31.7062 2.34375 30.9375C2.34375 30.1688 2.98125 29.5312 3.75 29.5312H15C15.7687 29.5312 16.4062 30.1688 16.4062 30.9375C16.4062 31.7062 15.7687 32.3438 15 32.3438Z" fill="white"/>
<path d="M9.375 24.8438H3.75C2.98125 24.8438 2.34375 24.2062 2.34375 23.4375C2.34375 22.6688 2.98125 22.0312 3.75 22.0312H9.375C10.1437 22.0312 10.7812 22.6688 10.7812 23.4375C10.7812 24.2062 10.1437 24.8438 9.375 24.8438Z" fill="white"/>
</svg>
