<svg width="45" height="45" viewBox="0 0 45 45" fill="none" xmlns="http://www.w3.org/2000/svg">
<path d="M24.15 38.1751H12.7688C9.6813 38.1751 7.70578 37.1042 6.48414 35.6351C5.23812 34.1366 4.6875 32.115 4.6875 30.0938V14.9063C4.6875 11.7494 5.30994 9.80658 6.48948 8.62705C7.66901 7.44752 9.61181 6.82507 12.7688 6.82507H24.15C27.3069 6.82507 29.2497 7.44752 30.4293 8.62705C31.6088 9.80658 32.2313 11.7494 32.2313 14.9063V30.0938C32.2313 33.2508 31.6088 35.1936 30.4293 36.3731C29.2497 37.5526 27.3069 38.1751 24.15 38.1751ZM12.7688 7.80007C10.3206 7.80007 8.41239 8.0978 7.18631 9.32388C5.96022 10.55 5.6625 12.4582 5.6625 14.9063V30.0938C5.6625 31.3273 5.87291 33.0958 6.90372 34.5782C7.97746 36.1225 9.83033 37.2001 12.7688 37.2001H24.15C26.5981 37.2001 28.5064 36.9023 29.7324 35.6763C30.9585 34.4502 31.2563 32.542 31.2563 30.0938V14.9063C31.2563 12.4582 30.9585 10.55 29.7324 9.32388C28.5064 8.0978 26.5981 7.80007 24.15 7.80007H12.7688Z" fill="#292D32" stroke="#292D32" stroke-width="1.875"/>
<path d="M31.4752 28.5945L31.475 28.5944C31.3534 28.5092 31.2749 28.3661 31.2749 28.1999V16.7999C31.2749 16.6338 31.3534 16.4906 31.475 16.4055L31.4752 16.4053L36.48 12.9001C36.4802 12.8999 36.4805 12.8998 36.4807 12.8996C37.468 12.2112 38.2637 12.0048 38.847 11.9804C39.4294 11.9559 39.8662 12.1103 40.1396 12.2491C40.42 12.4007 40.8006 12.6724 41.1157 13.1615C41.431 13.651 41.7187 14.4171 41.7187 15.6187V29.3624C41.7187 30.5645 41.4307 31.3357 41.1148 31.8279C40.7961 32.3245 40.4134 32.5918 40.1475 32.728L40.1261 32.739L40.1052 32.7511C39.8931 32.8739 39.4928 33.0187 38.9624 33.0187C38.3698 33.0187 37.5232 32.8282 36.481 32.1004C36.4808 32.1003 36.4806 32.1002 36.4805 32.1001L31.4752 28.5945ZM32.2312 27.4499V27.9389L32.6321 28.2187L37.0384 31.2937L37.0384 31.2937L37.0431 31.297C37.5344 31.6355 37.9986 31.852 38.4198 31.9556C38.8018 32.0496 39.2799 32.0806 39.6942 31.8633C40.12 31.6449 40.3697 31.2309 40.5102 30.8573C40.663 30.4511 40.7437 29.9492 40.7437 29.3624V15.6374C40.7437 15.0359 40.6568 14.5314 40.4997 14.1265C40.3522 13.7463 40.1025 13.3563 39.7069 13.1432C39.2897 12.9186 38.8057 12.9493 38.4198 13.0442C37.9986 13.1478 37.5344 13.3644 37.0431 13.7029L37.043 13.7029L37.0384 13.7061L32.6321 16.7811L32.2312 17.061V17.5499V27.4499Z" fill="#292D32" stroke="#292D32" stroke-width="1.875"/>
<path d="M21.5625 21.0938C19.7553 21.0938 18.2812 19.6197 18.2812 17.8125C18.2812 16.0053 19.7553 14.5312 21.5625 14.5312C23.3697 14.5312 24.8438 16.0053 24.8438 17.8125C24.8438 19.6197 23.3697 21.0938 21.5625 21.0938ZM21.5625 15.4688C20.276 15.4688 19.2188 16.526 19.2188 17.8125C19.2188 19.099 20.276 20.1562 21.5625 20.1562C22.849 20.1562 23.9062 19.099 23.9062 17.8125C23.9062 16.526 22.849 15.4688 21.5625 15.4688Z" fill="#292D32" stroke="#292D32" stroke-width="1.875"/>
</svg>
