<svg width="1024" height="1024" viewBox="0 0 1024 1024" fill="none" xmlns="http://www.w3.org/2000/svg">
<rect width="1024" height="1024" fill="#E7E7E7"/>
<mask id="mask0_3016_14997" style="mask-type:alpha" maskUnits="userSpaceOnUse" x="307" y="308" width="409" height="409">
<rect x="307" y="308" width="409" height="409" fill="#D9D9D9"/>
</mask>
<g mask="url(#mask0_3016_14997)">
<path d="M511.499 606.229C532.801 606.229 550.908 598.773 565.819 583.862C580.73 568.951 588.186 550.844 588.186 529.542C588.186 508.24 580.73 490.133 565.819 475.221C550.908 460.31 532.801 452.854 511.499 452.854C490.197 452.854 472.09 460.31 457.178 475.221C442.267 490.133 434.811 508.24 434.811 529.542C434.811 550.844 442.267 568.951 457.178 583.862C472.09 598.773 490.197 606.229 511.499 606.229ZM511.499 572.146C499.57 572.146 489.487 568.027 481.25 559.791C473.013 551.554 468.895 541.471 468.895 529.542C468.895 517.612 473.013 507.53 481.25 499.293C489.487 491.056 499.57 486.937 511.499 486.937C523.428 486.937 533.511 491.056 541.748 499.293C549.984 507.53 554.103 517.612 554.103 529.542C554.103 541.471 549.984 551.554 541.748 559.791C533.511 568.027 523.428 572.146 511.499 572.146ZM375.165 665.875C365.792 665.875 357.769 662.538 351.094 655.863C344.419 649.188 341.082 641.165 341.082 631.792V427.292C341.082 417.919 344.419 409.895 351.094 403.22C357.769 396.546 365.792 393.208 375.165 393.208H428.847L460.374 359.125H562.624L594.151 393.208H647.832C657.205 393.208 665.229 396.546 671.903 403.22C678.578 409.895 681.915 417.919 681.915 427.292V631.792C681.915 641.165 678.578 649.188 671.903 655.863C665.229 662.538 657.205 665.875 647.832 665.875H375.165Z" fill="#A3A3A3"/>
</g>
<path d="M287.682 714.892L765.682 313.892" stroke="#6C6C6C" stroke-width="21" stroke-linecap="round"/>
</svg>
